<?xml version="1.0" encoding="UTF-8"?><svg xmlns="http://www.w3.org/2000/svg" viewBox="0 0 300 58"><path d="M13.44,38.94c0,.14,0,.29,0,.43l.25-.2c-.1-.01-.19-.11-.25-.23Z" style="fill:#fff9c1;"/><path d="M18.75,39.98s0-.04,0-.06l-.03.03s.02.02.03.03Z" style="fill:#fff9c1;"/><path d="M12.78,28.27c0-.28.52-.21.66-.45h.12c0,.05.07.09.09.12.17,0-.03-.1.09-.12l.3.04c-.02.07.05.09.09.12.12-.1.38,0,.54.09.17.12.45.1.54.33h.12c-.07.03-.02.12-.04.17l.16.12-.12.21c.07.12.28.12.21.3l.38.03c0,.17-.05.45-.26.35-.03,0-.09-.02-.12.03l.13.09c.77.05,1.58.1,2.22.16.04,0,.07,0,.1,0,0-.02,0-.03-.01-.05-.07,0-.15-.02-.27-.03l-.72-.07c.28.02.62.04.98.07-1.25-5.07-3.82-8.35-7.05-8.35-1.69,0-2.88.83-3.86,1.64-.02.21-.16.4-.25.57l-.09-.09c-.05.07-.17.1-.12.21l.04.05c-.1.24-.3.17-.45.37-.15.07-.33-.14-.38.05-.14-.21-.47-.14-.71-.18-.02-.14-.28-.23-.36-.24.21-.28-.3-.24-.21-.5.03.02.05-.02.07-.05l-.24-.12c.07.02.09-.05.12-.09.03-.19.11-.4-.03-.63.02.05.07.05.12.05-.05-.23.28-.3.45-.38-.05-.02-.24-.12-.12-.21.16.12.4.17.5,0-.04,0,.59.05.24-.21l.14.09.07-.12c.39.11.67.48.92.77l.53-10.05c-.12.18-.3,0-.44.05l.04-.03c-.1-.17-.54-.3-.49-.71,0-.35.24-.52.33-.9.17-.09.4-.33.65-.18l.06-1.18c0-.32.17-.59.47-.53.08-.14.31-.15.43-.28.05.12.28.24.21.45h0c.78.2,1.91.29,2.95.29,2.17,0,4.27-1.16,5.65-2.82,1.59-2.03,2.1-3.98,1.59-3.98s-1.09.36-2.17.8c-1.45.58-3.19,1.01-5.21,1.01-1.81,0-3.4-.44-5.07-1.16-.58-.29-1.38-.51-1.96-.51-.36,0-.65.36-.65.94l-.33,6.36c.09.01.19.04.28.07.12.09.19.28.38.21.35.38.63.78.5,1.34-.24-.05-.29.5-.56.24l-.16.16c-.07-.23-.26-.09-.33-.28.01-.13-.14-.19-.2-.27l-.25,4.91s0,.02.02.03c0,.02-.01.03-.02.05l-.64,12.48c.12,0,.23.05.25.16-.09.07-.17.04-.25,0l-.06,1.25c0,.58.14.87.65.87.58,0,1.01-.65,1.38-1.16,1.59-2.24,3.62-5,5.43-5,1.42,0,2.35,1.1,2.91,3.24l.06-.06.05.04ZM13.41,27.38c.04.12-.14.09-.21.16l-.09-.03c-.02-.17.21-.21.3-.12ZM14.31,4.52v-.14c.17-.05.26.14.4.21.04.16-.02.28-.12.38-.28.12-.36-.21-.42-.38.07.02.09-.05.14-.07ZM12.68,7.68c.14-.02.19.14.3.21-.07.17-.31.21-.42.03.09-.05-.02-.19.12-.24ZM4.93,7.93c-.03-.14,0-.38.21-.49.07-.02.19.03.24-.05-.07-.09-.14-.24-.09-.33h.12s.03.05.05.09c.16,0,0-.14.09-.17.09.14.33-.14.45.05.23-.17.37.17.59,0,.04.19.43.26.28.54.12.14.07.26.17.42-.19.19.12.52-.17.71-.33.1-.47.43-.87.36-.09.07-.33.07-.45,0-.28-.19-.68-.43-.71-.83.07-.07.28-.24.09-.3ZM4.77,14.34h.07v.05h-.07v-.05ZM4.12,13.69c-.12.28-.42.19-.63.09-.1-.14-.26-.49.03-.57.24-.14.28.23.54.16.1.14.04.26.05.33Z" style="fill:#fff9c1;"/><path d="M13.33,54.64h-.02s-.02.03-.02.03h0s.05-.05.08-.08c-.02.02-.04.03-.05.05,0,0,0,0,0,0Z" style="fill:#fff9c1;"/><path d="M14.87,30.63l-.24-.09.04-.03c-.12,0-.16-.08-.17-.18l-.57-.04c-.01.22-.01.44-.2.61-.14.07-.05.29-.24.38l.04.04-.12.14c-.12.05-.38.03-.5.21-.14-.05-.26.07-.21.16-.16,0-.4.21-.63.26-.16.01-.27-.11-.4-.14.14,1.61.2,3.5.2,5.65,0,.34,0,.68,0,1.01.03-.02.06-.02.11-.02-.09-.14,0-.23-.07-.36l.04.03c-.14-.26.26-.05.17-.33.16.19.12-.07.28,0-.09-.21.17-.1.21-.26.1.07.15.24.29.21l.09-.16c.16-.02.3.14.42.09v-.17c.19.14.43.4.63.3.1.05-.03.23.12.21l.03-.05c0,.26.33.47.26.68.03.02.05.1.12.09-.03.07-.24,0-.24.16.21.03.05.19.07.3-.08.03-.28.2-.17.34,0,0,0,0,.01,0l.03.05s-.03-.03-.05-.04c-.21.12.16.29-.08.41l-.09-.09c-.02.16-.1.02-.16.09l-.09-.16c-.07-.02-.1.07-.17.04-.09.1.02.14-.03.24-.07.02-.09-.05-.12-.07-.1.14-.47.09-.59.03l-.03-.03-.09.07c.05-.35-.26-.02-.38-.24-.28.23-.1-.31-.42-.21.1-.07.02-.21-.07-.21l.04-.03-.08-.08c-.02,1.97-.09,3.69-.2,5.17.02.02.05.04.07.07.05,0,.1.02.12-.03v-.09c.21-.09.37.28.54-.03.05.1.64.24.3.54.23.14-.07.3-.03.42-.17-.12-.24.1-.33.21-.29-.24-.52-.05-.77.11-.56,5.62-1.86,7.49-3.95,7.49-.07,0-.15,0-.22-.02v.43c-.26-.03.03.21-.16.26-.12-.03-.24-.19-.14-.3.05-.14-.1-.1-.16-.17-.01-.14-.15-.28-.17-.42-2.42-1.21-4.52-7.26-4.52-9.99,0-.65-.29-.87-.8-.87-.29,0-.43.36-.43.94,0,6.37,2.32,13.76,7.39,13.76.23,0,.45-.01.67-.03v-.02h.07c.1,0,.2-.02.3-.03,0-.01-.01-.02,0-.04h.03v.04c1.38-.2,2.55-.8,3.53-1.75v-.06h.06c.08-.07.15-.15.22-.23h-.05l.11-.08s0,0,.01-.01c-.04-.08-.17,0-.15-.12l.04-.05c.07.03.04.16.12.14.07-.05-.03-.16.09-.21.05.04.05.07.04.1.08-.09.16-.19.24-.29-.06-.06-.07-.13.01-.23-.07.1-.04.15.02.18.09-.12.19-.25.28-.38h0s.02-.04.04-.04c1.36-1.99,2.23-4.87,2.71-8.47-.07-.02-.13-.06-.15-.18-.05-.28.03-.66.24-.83.01,0,.02-.01.03-.02.14-1.27.23-2.62.29-4.04-.05.08-.11.13-.2.16-.19-.1-.52-.3-.33-.54.1-.05.24-.03.38-.03-.02.05.05.09.07.12h.08c.02-.75.04-1.53.04-2.32-.06-.04-.13-.05-.17.03-.19-.1-.31-.35-.33-.5-.45-.04-.23-.54-.45-.71.12-.09.09-.3.04-.42.15-.38.52-.53.87-.63-.09-1.76-.31-3.4-.64-4.91l-1.44-.1c-.02.12-.11.21-.22.26ZM14.21,34.68c-.14.09-.28.19-.45.16-.17-.05-.3-.19-.3-.36.03.02.05-.03.09-.05-.03-.02-.05-.05-.09-.03-.02-.09.12-.17.21-.21.12.02.14.02.24-.05.17.07.24.21.33.35-.07.03-.02.14-.04.21ZM5.62,54.97c-.1-.17-.24-.4-.04-.57.07-.02.17.03.21-.05,0,.24.33.35.21.63-.09.12-.28.12-.38,0ZM6.33,56.01c-.17-.1-.38.14-.45-.12l.03-.24h.05c.02-.12-.07-.23.07-.35.16.07.37.02.47.21-.09.19.05.36-.17.5ZM6.66,56.22v-.16.16ZM8.08,56.1h-.07v-.07h.07v.07ZM7.87,55.86l.17-.05.04.05h-.21ZM8.15,54.42h.05v.05h-.05v-.05ZM8.26,56.73v-.09.09ZM8.17,55.48v-.03h.09l-.09.03ZM9.89,53.25h.07v.05h-.07v-.05ZM9.32,53.95h.05v.07h-.05v-.07ZM8.88,54.4c.09.05.07.05,0,.12v-.12ZM8.52,54.33h.07v.07h-.07v-.07ZM8.88,56.6c-.05-.21.17-.07.24-.17.16.07.33.17.47.14l-.71.03ZM9.92,56.19l-.14.09c.11.05.09.15.09.24h-.45l.03-.03c-.24-.12-.47-.3-.75-.35.04-.14-.4-.49-.03-.75-.05-.05-.02-.16-.09-.21.05-.05.12-.05.16-.12.14.35.62-.17.8.3.02.07.1.42.24.57-.02.03-.05.05-.03.09.03.09.1.04.17.05-.03.02-.07.04-.05.07l.05.05ZM9.96,54.76s.02-.05.03-.09c0,.05.03.07.05.09h-.09ZM10.13,56.4s-.07-.05-.05-.09h.05v.09ZM10.26,55.18l.03-.03h.05l-.09.03ZM10.41,53.98v.07l-.03-.04.03-.03ZM10.41,56.35l.05-.03h.03l-.09.03ZM10.67,54.56h-.09s.05-.05.09-.03v.03ZM10.88,55.15h-.07v-.07h.07v.07ZM10.88,54.85v-.09.09ZM10.97,56.28h-.07v-.07h.07v.07ZM10.83,54.26v-.07l.17.03-.17.03ZM11.12,53.72h-.05v-.05h.05v.05ZM11.38,55.18l-.09-.12.09.09v.03ZM11.38,54.68l-.09-.07h.09v.07ZM11.45,55.36l.05-.05.03.05h-.09ZM11.66,55.93s-.05-.04-.03-.07h.03v.07ZM11.63,55.6v-.09s.05.03.09.05l-.09.03ZM12.13,54.31l.04.03-.09.05s.04-.07.05-.09ZM12.13,55.51v-.12l.09.09-.09.04ZM13.42,53.48h.09l-.17.12c0-.07.07-.09.09-.12ZM12.78,53.83h.07v.07h-.07v-.07ZM12.37,54.64h.09v.03h-.09v-.03ZM12.37,55.06v-.03h.12l-.12.03ZM12.55,53.63h-.07v-.05h.07v.05ZM12.57,54.63h.07v.05h-.07v-.05ZM12.76,54.97s-.02-.12-.08-.16c-.03.01-.06.02-.1,0,.04-.03.07-.02.1,0,.07-.03.12-.09.2,0l-.12.16ZM12.84,54.68c-.05-.02-.05-.07-.05-.12h.12c.02.07-.05.09-.07.12ZM12.97,54.35l-.12-.21.16-.03-.03.09.12.07-.12.09ZM13.05,54.82v-.09s.05.02.07.03l-.07.05ZM13.17,54.19h-.07v-.07h.07v.07ZM13.38,53.98l-.21-.14c.02-.05.17,0,.24.05.02.03-.02.05-.03.09ZM13.42,54.1s.02-.05.05-.09h.07l-.12.09ZM13.63,53.84c-.02.05-.07.05-.12.05.05,0,.1,0,.12-.05l-.16-.12s.05-.09.12-.09c.07.05.02.16.04.21ZM13.57,53.51v-.05h.05v.05h-.05ZM13.63,53.36l.12.07-.12-.07ZM13.75,45.54c-.07-.07-.33,0-.24-.21.1.03.28-.07.33.09.02.05-.05.09-.09.12ZM15.06,45.16c-.04.33-.4.21-.59.17-.09-.17-.43,0-.36-.3-.4-.1-.12-.66-.09-.87l.09.09c.07-.05.02-.14.03-.21l.12.03c.07-.1-.02-.17.12-.24.05,0,.1-.02.14.03.05-.21.23.03.36-.03.35.17.5.42.68.78-.31.14-.09.61-.5.54ZM16.26,40.01c.02-.1-.03-.23.04-.3.07.05.21.1.21.24-.09.02-.17.16-.24.05ZM16.33,37.18v.12s-.05.02-.07.03c-.05.21.17.07.24.17.04.05-.03.19-.12.24-.07-.02-.14-.05-.21-.03-.02-.35-.85-.5-.26-.83.16.05.42.07.42.3ZM15.88,34.83c-.19-.09-.38.14-.42-.16,0-.17-.02-.38.17-.42.17.11.24.21.28.42l-.03.16ZM15.76,32.92c.07.12.05.24-.09.33-.05,0-.1-.02-.12.03-.09-.12-.17-.21-.17-.33.03-.09-.09-.05-.09-.12.16-.1.35,0,.47.09ZM15.63,41.83c-.1.21.05.5-.12.68-.26-.02-.5.38-.71.12-.02.03-.05.05-.03.09-.07-.33-.63-.42-.42-.89.17-.05.09-.49.38-.33l.21-.12c-.04-.05-.09-.03-.14-.03.1-.14.31-.28.47-.21.38.1,0,.49.36.69Z" style="fill:#fff9c1;"/><path d="M27.64,30.44l1.3.09v-9.83c-.17-.06-.33-.16-.39-.37.19-.17.24-.46.39-.63v-.35c-.07.01-.13.03-.18.06-.36-.09-.31-.57,0-.69.05,0,.12,0,.18.01v-5.19c-.19-.02-.38-.1-.46-.3,0-.21.12-.3.24-.42.05-.05.13-.03.21-.03v-5.03c0-.87.15-1.52.65-2.03l2.17-2.1s0-.01.01-.02h0s0-.01.01-.02c.16-.21.48-.41.48-.62,0-.22-.14-.44-.44-.44h-11.37c-.29,0-.43.22-.43.44s.36.43.51.65l2.17,2.1c.51.51.65,1.16.65,2.03v22.46c1.58.09,4.19.28,4.28.22ZM29.36,4.85c.05.02.03.07.03.12-.07.02-.12-.09-.03-.12ZM29.1,5.57l.03-.05-.03.09v-.03ZM27.76,17.88c.19-.05.4.05.57.21-.02.1-.12.19-.09.33-.21-.03-.24.24-.45.09-.26-.09-.4-.47-.03-.63ZM27.59,7.99v.09l-.09-.09h.09ZM22.85,4.32h-.09v-.05h.09v.05ZM27.01,5.6s.01.09,0,.13v.17h-.07c0-.06.05-.11.07-.17v-.13ZM23.54,21.24h-.16c0-.09.1-.03.16-.05v.05ZM23.93,21.24c-.05-.03-.03-.09-.03-.12.05.02.03.07.03.12ZM25.43,21.44h-.05v-.07h.05v.07ZM26.31,16.12c.1-.19-.28-.23-.09-.38l-.17-.09c.12-.24.09-.38.38-.5.12-.03.28.09.45.05.16.24.26.56.14.75.02.28-.3.07-.38.24-.12,0-.23-.16-.33-.07ZM26.53,20.14s0-.08.01-.12c-.03-.12-.13-.27.02-.37.19.12.03.23-.02.37,0,.04.01.08-.01.12ZM27.15,17.93c-.36.21-.5-.17-.76-.36.24-.24.36-.23.63-.21.36.07.03.45.14.57Z" style="fill:#fff9c1;"/><path d="M21.78,39.59c.29-.01.51-.17.82.03l.05-.16c.12-.12.1.24.24.07l-.09-.16c.33-.05.35-.45.71-.29.24-.17.68.16.75-.24.3-.07.23.16.5.16.07-.17.19,0,.29,0,.14.09.23.16.21.33.12.1-.07.07-.05.17.09.07.3.02.21.21.03.02.05.05.09.04-.14.03-.21.28-.21.38-.09-.09-.12.02-.21.04-.02.07.07.09.09.14h.17c.07.17-.14.36-.21.49-.12.03-.28-.05-.35.09-.02.09.05.12.09.17h.17c-.1.24-.28.26-.42.45l-.05-.03c-.03.05-.12.09-.12.16-.12-.19-.33.05-.45-.04v.12c-.28.19-.57-.3-.83-.12-.17-.47-.64.07-.8-.38.03.02.07-.02.09-.03-.07-.09-.23-.14-.17-.33l.05-.05c-.16-.07-.05-.19-.05-.28,0-.03.04-.07.05-.09-.06-.38-.39-.09-.57-.27v4.08s.08.02.11.03c.05.1.19.17.14.33-.07,0-.12-.1-.17,0v.09s-.05-.02-.07-.02v6.98c0,.87-.15,1.52-.65,2.03l-2.17,2.1c-.15.29-.51.43-.51.65s.14.44.44.44h17.74c.58,0,.8-.36.8-1.01v-3.96l-.15-.05.04-.03c-.26,0-.17-.4-.07-.5.07-.02.13-.01.19,0v-13.18c0-.29-.14-.51-.36-.51-.29,0-.29.22-.44.51l-4.49,14.05c-.29.87-1.01,1.09-1.88,1.09h-2.9v-.46c-.36.05-.66.18-.96-.09l-.21.05-.05-.33h-.03c.03-.21-.12-.21-.12-.42l-.12.03c-.17-.26.3-.23.07-.45-.05.02.05-.14.14-.09l.03.04c.05-.09-.05-.26.03-.36l.29-.05c0-.09.02-.16.09-.21.24-.09.36-.02.59-.03l.07.09.09-.09c.02.05.06.09.09.12v-19.79l-5.58-.37v8.77ZM22.38,48.14c-.21.1-.36.3-.57.04-.02-.31.1-.31.36-.36.19.02.24.14.21.33ZM36.1,55.65c-.02-.09.12-.17.21-.21.12.02.14.02.24-.05.17.07.24.21.33.35-.07.04-.02.14-.03.21-.14.09-.28.19-.45.15-.17-.05-.3-.19-.3-.36.03.02.05-.03.09-.05-.03-.02-.05-.05-.09-.03ZM34.47,48.65c.03.12-.14.09-.21.16l-.09-.03c-.02-.17.21-.21.3-.12ZM24.1,47.34h-.07v-.07h.07v.07ZM25.27,48.93c-.17,0-.19-.14-.3-.24.07-.19.15-.33.42-.21h.03c.04.12.02.38-.15.45ZM26.19,46.55c-.45.1-.99-.28-1.25-.57.02-.16-.03-.3-.17-.33.44-.03,0-.57.38-.56l-.05-.03c.22-.09.5-.17.75-.09.61.17.23,1.06.35,1.58ZM25.65,43.17c.33.12.21.5.42.68.05.1-.09.1-.14.16.17.02.05.21.05.3-.14.17-.21.4-.42.54-.05-.09-.14-.09-.21-.04-.07.17-.19-.02-.26.04l-.03-.04-.03.16c-.26-.1-.7-.1-.77-.49-.28-.14-.03-.33-.28-.47.31-.14-.35-.43.12-.5l-.05-.16c.16-.03.3-.19.42-.12l-.07-.09c.14-.09.21-.38.45-.21.17.21.3-.23.5.03l-.05.05c.12.05.21.23.35.16ZM24.19,38.38s.09,0,.12.05h-.12v-.05Z" style="fill:#fff9c1;"/><path d="M24.82,30.57c-2.35-.2,1.9.03-1.08-.19.19-.02.55-.01.46-.05-.27-.03-.56-.06-.84-.09v.28c1.09.07-.06-.05,1.45.04Z" style="fill:#fff9c1;"/><path d="M41.78,31.33s0,.03,0,.04l1.3.09c.4-.23.56-.65,1.03-.6.33-.26.75.12,1.04.3l.17.21c-.1.24.14-.03.17.21-.02.01-.02.03-.03.04l.87.06c-.02-1.59-.02-3.28-.02-5.09,0-.91,0-1.78.01-2.62-.05.06-.1.12-.18.15-.33-.05-.5.28-.89.05.17-.16-.14-.19-.09-.35-.14-.23,0-.49-.16-.66.16-.1-.05-.21.09-.33l.28-.3-.04-.04c.05.02.24-.07.3.07.07-.26.33-.14.54-.28.06-.03.11-.01.17.03.02-1.13.04-2.19.07-3.18h-.05v-.05h.05c0-.07,0-.14,0-.2-.06.1-.1.2-.25.13-.1.04-.17-.03-.21-.12.02-.12-.05-.31.12-.33.19-.06.26.07.34.19.34-9.31,1.43-12.6,3.64-12.6.1,0,.19,0,.28.02.01-.04.02-.08.01-.13.02.03.03.07.07.05.05-.04.05-.09.05-.12l.03.03c.21-.21.43-.26.68-.33.36.02.42.37.62.63-.05.14.17.45.04.63l.03.04c-.04.05-.09.12-.13.19.3.45.56,1.05.79,1.84l-3.03,16.81c.09.03.19.08.25.16-.02.03-.05.05-.03.09l.07.09c-.13.08-.26.01-.36.04l-1.01,5.61,2.6.17,2.56-14.21c.11,2.46.16,5.37.16,8.8,0,1.74,0,3.37-.02,4.9.08-.17.15,0,.29-.1.17.12.26.31.16.5-.11.07-.24.17-.36.09-.03,0-.06,0-.08-.02,0,.21,0,.41,0,.61.83.06,2.51.18,2.52.14.27.02.63.04,1.08.07.45.05-.28.07,1.53.19.06,0,.12,0,.17,0,0-.01,0-.03,0-.04-.27-.03-.46-.05,0-.04h0c-.32-.04-.23-.04,0-.03,0-.08,0-.16,0-.24l-.43-.05c-.36,0-1-.05-1.54-.07-.45-.06,1.27.01,0-.1l1.96.13c.05-1.84.08-3.75.08-5.73,0-5.98-.47-12.16-1.89-16.79-.05.13-.09.26-.25.12.05.37-.42.12-.47.42-.07-.02-.16.02-.21.09-.07-.1-.19-.16-.33-.12l-.04.03c-.15-.1-.24.02-.47,0,.09-.33-.44-.28-.45-.54l-.21-.17.03-.03-.16-.17c.05-.05.17-.05.12-.16l-.03-.05c.17-.1.02-.26-.05-.36l-.03-.05.21-.24c-.17-.02-.14-.24-.09-.33.05.12.19.04.24.12.09-.09,0-.21-.04-.3h-.03v-.03c.2-.13.5.08.45-.26,0,0,0,0,0,0v-.03s0,.02,0,.04c.29.2.29-.42.59-.21.03-.02.05-.1.12-.09l.03.05c.04-.11.1-.12.16-.11-1.39-3.1-3.4-5.06-6.27-5.06-4.14,0-6.52,4.02-7.8,9.63.2-.06.42-.11.61-.04.61.17.23,1.06.35,1.58-.42.1-.9-.22-1.18-.5-.38,1.91-.65,3.97-.82,6.11.11.07.18.24.35.21.24.24-.1.44-.12.68-.1-.05-.14.07-.21.12-.03,0-.06-.01-.1-.02,0,.16-.02.32-.03.48.25.09.72-.13.76.23.12.16.21.16.3.3-.16.17.11.17.12.33.28-.1.05-.36.3-.48.45-.09.9-.4,1.28,0,.3-.07.24.24.42.36-.03.12-.05.35.12.38-.05.02-.12-.03-.16.03.21.16-.03.33-.17.38.05.02.07.1.12.09-.05.3-.37.31-.49.54l.03.03c-.23.28-.52.03-.8.05l-.12-.14-.04.05c-.1-.19-.47-.31-.47-.63l-.16-.3c-.09.03-.04.14-.05.21-.02-.05-.07-.03-.12-.03l-.09.07-.03-.04c-.12.16-.33.28-.54.3l-.21-.17s-.06.04-.1.04c-.06,1.46-.09,2.93-.09,4.39,0,1.55.02,3.06.05,4.52l.78.05v-.04ZM50.23,29.35l-.09-.09h.09v.09ZM50.91,30.42h-.07v-.07h.07v.07ZM51.13,24.99h-.07v-.07h.07v.07ZM51.74,26.88v-.04l.04-.05-.04.09ZM57.16,31.26c.24.09.23.31.16.45-.09-.02-.12.17-.21.05-.09.21-.19-.03-.3-.05-.1-.28.19-.35.35-.45ZM56.36,31.64c.1-.05.14.07.21.12l-.24.12c.02-.09-.04-.19.03-.24ZM53.66,17.7l.05-.05.04.05h-.09ZM54.61,13.23s-.09-.04-.07-.09h.07v.09ZM48.91,4.76v.09l-.04-.05.04-.03ZM45.31,14.86c.31-.07.33.28.24.47l-.17.12c-.16-.1-.42-.48-.07-.59ZM42.32,16.1c-.17,0-.19-.14-.29-.24.07-.19.15-.33.42-.21h.03c.04.12.02.38-.16.45ZM44.6,16.82h.09l-.12.09s.02-.05.03-.09ZM44.93,23.2l.04.05c-.1.24-.42.17-.45.45-.1.05-.29.1-.38-.03.16-.28.54-.31.8-.47ZM42.86,30.5v.07s-.05-.04-.03-.07h.03ZM42.1,30.84h.07v.07h-.07v-.07ZM41.33,31.04s-.07-.05-.05-.09h.05v.09ZM41.66,30.95h.03l-.09.03.05-.03Z" style="fill:#fff9c1;"/><path d="M51.66,45.32c.08-.04.16-.09.21-.15l.17.14c.03-.12.21-.12.33-.14.19-.03.4.23.54-.03.14.14.07.24.21.38.09-.03.03-.12.05-.17.12.1.17.26.36.3-.07.16.17.31,0,.45l.12.09-.28.42.07.09c-.28.1-.42.45-.78.45-.02.26-.31.05-.47.26-.09-.03-.16-.12-.28-.09l.03-.05c-.17,0-.23-.17-.38-.21.02-.09-.02-.13-.08-.16-.58,4.83-1.54,6.34-2.99,6.34-1.02,0-1.8-.7-2.38-2.67l3.23-17.91-2.6-.17-1.71,9.5c-.14-2.62-.23-5.79-.27-9.63l-.73-.05-.11.11c.19.12-.04.3.03.42-.07-.02-.09.05-.12.09l.03.21c-.05.15-.21.17-.3.33-.03.05-.12.09-.12.17l.05.03c-.1-.03-.19.03-.21.12-.14.12-.44-.1-.59.09l-.09-.09c-.1.07-.28-.12-.42,0-.19-.23-.33-.47-.62-.54.02-.07-.05-.09-.09-.12l.09-.09s-.05-.1-.12-.09c-.02-.05.05-.09.09-.12l-.12-.09s.05-.03.04-.09l-.17-.03c.16-.16.1-.28.05-.45l-.06-.05-1.84-.12c.11,4.4.38,8.39.87,11.82.03.04.06.07.09.11l-.04.05c.24.09.12.4.33.54-.04.07-.14.03-.12.12l.03.05-.12.04c.23.1.07.52.3.59-.16.09-.19.22-.17.34,0,.03,0,.05.01.08.02.08.05.16.07.24.07-.02.09.05.12.09-.08.01-.11.05-.12.1.01.08.03.16.04.23.01.03.03.06.04.08.04.07.1.02.16.03l.14-.12c.23.14.57.35.57.71-.23.17-.44.34-.68.37,1.34,5.88,3.66,9.37,7.53,9.37s6.15-3.53,7.48-9.45c0,0-.02,0-.02,0-.24-.1-.05-.35,0-.47.02.03.06.05.11.07.62-2.91,1.01-6.38,1.24-10.28-.14.1-.27.2-.46.17l-.09.12-.3-.17c.23-.21.56-.3.86-.27.06-1.09.11-2.22.15-3.37l-5.3-.35c-.07,5.41-.23,9.47-.5,12.49ZM47.48,36.42c.12-.03.28.09.45.05.16.24.26.56.14.75.02.28-.3.07-.38.24-.12,0-.23-.16-.33-.07.11-.19-.28-.23-.09-.38l-.17-.09c.12-.24.09-.38.38-.5ZM44.95,42.4c.05.02.04.07.04.12-.05-.04-.04-.09-.04-.12ZM44.83,46.68l-.21-.05c.03-.05.07-.16.16-.16.09.03.03.14.05.21ZM44.57,33.88c.05,0,.11-.02.12.03v.05h-.16s.02-.05.03-.09ZM44.6,42.46v.05h-.16c0-.09.1-.04.16-.05ZM43.57,48.38c-.26-.17.14-.16.05-.36.16-.14.35-.24.57-.26,0,.03.03.07.05.09.23,0,.04-.49.33-.24.12-.16.33-.16.45-.05l.09.09.09-.09.24.21c.04-.05.09-.03.14-.03-.21.33.49.3.12.57.24.17-.14.45.16.59-.17.12-.21.26-.42.33l.09.09c-.3.1-.4.31-.71.24-.33.24-.57-.09-.99-.03-.42-.04-.03-.47-.42-.63.17-.17-.02-.33.16-.5ZM43.65,52.31c-.02-.28.19-.47.35-.68,0,.19-.17.56-.35.68ZM43.3,42.71h.05v.05h-.05v-.05ZM42.95,47.1s-.19.03-.3.09c-.26-.19-.52-.14-.68-.47,0-.14,0-.33.17-.37l.24.12c.09-.03.03-.1.05-.17.17,0,.47-.02.62.17.14.23-.09.45-.12.63ZM55.58,46.18c-.03.07-.12.12-.09.21-.03-.02-.05-.05-.09-.03l-.09.07c0,.26-.09.57-.36.68.05.1-.1.12-.14.24l-.03-.03c-.21.09-.1.54-.45.45v.08c-.33-.08-.59.19-.89-.08-.1-.14-.17-.28-.21-.45.07-.1.19-.23.33-.26-.3-.04.03-.31.05-.42l.09-.07-.05-.05c.1.02.09-.1.12-.16l-.04-.05c.21-.19.61-.28.63-.57.05,0,.1-.02.12.03.07-.09.21-.12.17-.24-.17-.16-.54-.35-.33-.68.1-.04.17-.17.33-.12.19.15.23.43.21.62.3-.14.56-.1.78.12.1.24-.17.54-.07.71ZM54.54,35.55c.02-.21-.07-.47.21-.54-.02-.19.17-.24.28-.33l.14.04.03-.12c.23.19.47-.05.66.21h.14s-.03.05-.05.09c.3.02-.02.35.33.24-.02.17-.1.31.05.42-.02.09-.16.17-.05.24-.17.12-.12.45-.42.5-.11-.14-.31.1-.45,0-.23.42-.54-.05-.8-.09-.05-.21-.28-.45-.07-.66ZM54.16,43.26c.09-.02.19.03.24-.03.09.05.14.14.14.24-.11.07-.16.24-.3.17-.14-.12-.1-.23-.09-.38ZM52.82,41.68c.12-.03.17.05.26.09.02-.05.09-.07.07-.14.14.1.19.12.35.05.17.1.05.38.28.42.19.21.04.3.09.5.05.03.12.09.09.16l-.04.05c.19.07-.09.21-.05.28-.07,0-.1.09-.16.14l.03.12-.03-.05c-.07.1-.24.16-.17.3-.16.02-.26.07-.42.12.19.1.38.24.54.42-.02.42-.23.52-.54.76-.23.03-.28-.05-.42-.26-.05-.03-.1-.09-.09-.16.09-.07-.09-.14-.09-.21.23-.1.07-.26.21-.42-.37-.02-.54-.36-.75-.59.21-.43-.09-.85.26-1.16.07-.07.23.03.16-.17.28.09.14-.33.42-.24Z" style="fill:#fff9c1;"/><path d="M67.29,22.92l.06.02s-.01-.07-.02-.1c-.02.03-.04.06-.04.09Z" style="fill:#fff9c1;"/><polygon points="66.88 38.26 66.88 38.25 66.88 38.26 66.88 38.26" style="fill:#fff9c1;"/><path d="M70.35,31c.47,0,.91.19,1.3.54-.01-.02-.02-.05-.03-.07.07-.14.04-.38.26-.38l.21.05c.03.15-.02.46-.23.6.37.41.7.98.98,1.71l5.1.34c-.95-2.33-2.3-3.91-3.82-4.74,1.05-.99,1.92-2,2.63-3.07-.12,0-.25,0-.36-.02-.02-.14-.28-.23-.36-.24.21-.28-.3-.24-.21-.51.03.02.05-.02.07-.05l-.24-.12c.07.02.09-.05.12-.09.04-.19.1-.4-.03-.63.02.05.07.05.12.05-.05-.23.28-.3.45-.38-.05-.02-.24-.12-.12-.21.16.12.4.17.5,0-.03,0,.59.05.24-.21l.14.09.07-.12c.28.08.5.3.7.52.66-1.42,1.09-2.96,1.31-4.69,0-.02-.02-.04-.04-.05.03-.11-.33-.19-.03-.33-.09,0-.19-.14-.09-.21l-.21-.36.33-.05-.03-.24-.17.03-.09-.3c.09.02.15,0,.21-.07l-.07-.09.21-.09-.05-.03c.35-.14-.12-.3.09-.47.03-.02.05.02.09.05,0-.07.02-.13.05-.18,0-.25.01-.5.01-.75,0-.28,0-.57-.02-.85-.1.01-.21,0-.31-.03-.44-.13-.36-.62-.33-1.08,0,0-.02,0-.03,0l-.05-.03c-.12.21-.31.02-.45.07l.03-.03c-.1-.17-.54-.3-.49-.71,0-.35.24-.52.33-.9.17-.09.4-.33.66-.17.05.11.23.16.35.1-.03-.16-.06-.31-.09-.47-.02,0-.04,0-.06-.01.01-.03.02-.06.04-.09-.18-.92-.42-1.81-.72-2.65,0,.02-.01.05-.03.08.12.14.07.26.17.42-.19.19.12.52-.17.71-.33.11-.47.44-.87.36-.09.07-.33.07-.45,0-.28-.19-.68-.43-.71-.83.07-.07.28-.24.09-.3-.03-.14,0-.38.21-.48.07-.02.19.03.24-.05-.07-.09-.14-.24-.09-.33h.12s.03.05.05.09c.16,0,0-.14.09-.17.09.14.33-.14.45.05.23-.17.36.17.59,0,.02.1.14.17.23.25-1.42-3.82-4.06-6.62-7.77-6.62-.35,0-.69.03-1.02.07-.03.05-.05.11-.04.19-.05.02-.12.04-.16.09,0-.07-.07-.1-.14-.09-.05.02-.12-.03-.16.05.03.05.1.05.16.07v.05c-.17-.05-.29-.15-.42-.22-4.72,1.22-7.21,7.31-7.21,13.46,0,.64.02,1.25.06,1.85.16-.14.32-.41.59-.28.16.12.21.19.21.36-.23.07-.43.49-.7.21l-.1-.14c.33,4.51,1.84,7.77,5.07,10.82-1.29.71-2.46,1.96-3.35,3.76l4.8.32c.6-1.38,1.4-2.12,2.38-2.12ZM76.29,14.82l.05.05h-.09l.04-.05ZM76.07,16.22h.07v.05h-.07v-.05ZM68.49,31.67c-.09-.1-.43-.1-.24-.33l-.12-.05c.03-.12.17-.17.3-.21l-.14.17c.17.07.24.23.21.42ZM73.08,30.25l-.15.21.03.05c.02.24-.35,0-.24.29-.24-.05-.47.21-.68,0,.14-.38-.57-.28-.24-.63l-.12-.14c.12-.1.17-.21.3-.28l-.05-.05c.16-.31.43-.54.75-.5.26,0,.28.21.38.38-.19.33.21.38.03.66ZM74.54,28.25c-.19.24-.4.75-.83.68-.04.07-.17,0-.16.12-.52.17-.52-.44-.75-.71.1-.09-.07-.14.07-.21-.14-.16-.09-.28-.04-.45.1-.1.19-.19.17-.35.02.03.04.07.07.05.05-.03.05-.09.05-.12l.04.04c.21-.21.43-.26.68-.33.36.02.42.37.62.63-.05.14.17.45.04.63l.03.03ZM75.88,17.88l-.12-.09s.05-.07.09-.05c.05.03.04.09.04.14ZM73.93,12.45c.21-.1,0-.21.12-.35.21-.3.54-.28.87-.16.12.09.19.28.38.21.35.38.63.78.5,1.34-.24-.05-.3.5-.56.24l-.16.16c-.07-.23-.26-.09-.33-.28.02-.19-.31-.23-.21-.38-.03-.02-.05-.05-.09-.04-.04.21-.12-.07-.21-.05-.05-.33-.38.02-.38-.33.07.02.09-.05.12-.09l-.16-.04.12-.12c-.05-.03-.03-.09-.03-.12ZM67.33,7.15l.05.03-.38.47-.03-.05c.12-.19.26-.26.36-.45ZM63.42,18.29c-.16.02-.28-.03-.38-.14-.09-.28.17-.35.33-.49.28.02.56-.36.8-.05.23.62-.59.23-.75.68ZM64.8,13.62c-.19.21-.38.21-.63.21-.12-.17-.24-.33-.38-.5-.04,0-.09.02-.12-.03l.09-.09c-.15-.16-.05-.42-.09-.63-.24-.05-.04-.23.09-.21.04-.37.33-.38.45-.71.4-.14.62.09.92.09,0,.16.35.14.17.33l.21.03c.02.16-.12.28-.09.42l.3-.28c.09.17.23,0,.33,0,.17.19.61.09.63.42-.03-.02-.05.02-.09.03.21.11-.04.19.01.31.03.02.05.05.08.08-.05-.03-.07-.05-.08-.08-.03-.02-.06-.03-.1-.01l-.03.04c.31.26-.31.26-.12.5-.03.03-.1.07-.09.12l.03.05c-.1-.05-.14.07-.21.12-.02.03.03.05.05.07-.24.07-.5.07-.75-.04-.17-.14-.31-.42-.59-.24ZM66.34,23.92c-.21-.28-.83-.3-.71-.76.12-.14-.26-.35,0-.54-.19-.35.33-.52.51-.78.28.02.36-.17.69-.05.02.12.16.14.26.12-.02.09,0,.15.09.21l.02-.02c-.22-1.27-.35-2.68-.42-4.11-.16,0-.28-.03-.32-.25.04-.16.12-.24.3-.28h0c-.02-.51-.03-1.02-.03-1.53,0-5.65,1.01-9.78,3.62-9.78s3.62,4.13,3.62,9.78-1.09,11.58-3.62,11.58c-1.45,0-2.41-1.87-2.98-4.5-.07.14-.1.33-.29.34l.03.05c-.19.38-.56.23-.78.5Z" style="fill:#fff9c1;"/><path d="M71.77,35.19c.11-.05.22-.15.32.02.05-.03.05-.09.05-.12.21.12.42-.07.66,0,.09-.03.14-.14.24-.05.14.12.02.33.17.42l.09-.09c.14.17.04.35.12.56l-.09.21.21.07-.12.09.09.09c-.07-.05-.16-.05-.21.04-.02.07.05.09.09.14h.15l.05.66c-.07-.02-.09.05-.14.09.26.03,0,.24.09.33h.09l-.24.21.07.09c-.14-.07-.19.1-.28.16-.03-.05-.09-.03-.14-.03-.07.19-.17.14-.33.21-.2-.12-.3.23-.45.38.08,1.03.13,2.15.13,3.37,0,2.43-.13,4.43-.38,6.03.29-.29.8-.12,1.03-.18.4,0,.49.4.75.54l-.16.09c.03.05.09.1.16.09l.05-.05.03.05c-.26.09-.02.31-.09.42.24.12-.02.31,0,.45-.02.07-.21.03-.21.17l.05.04-.21.21.03.05c-.03.07-.17-.09-.16.07-.31-.05-.66.19-1.01-.03l-.03.03c-.16-.18-.39-.3-.54-.46-.62,2.55-1.63,3.72-2.95,3.72-1.83,0-3.03-2.1-3.45-6.88h-.03s0-.08,0-.08c0,0,.01-.01.02-.02-.11-1.24-.16-2.64-.16-4.25,0-.63.01-1.23.04-1.81-.07.08-.15.15-.27.18-.02-.02-.05-.05-.09-.03l-.04.12c-.03-.05-.14-.05-.17,0l-.15.17s.05.05.03.09c-.28.07-.28.69-.66.45-.12-.19-.1-.28-.17-.5.23-.02.1-.31.33-.3.21-.42-.57-.78,0-1.16-.19-.26.28-.23.17-.5.19-.26.3-.42.54-.57.02.04-.02.05-.04.09l.09.07c.05-.19.33-.11.45-.12l.1.04c.16-1.8.44-3.3.83-4.45l-4.85-.32c-.77,1.78-1.28,4.05-1.44,6.8.1.04.19.1.24.19-.12.28-.09.5-.28.72,0,.28-.02.56-.02.85,0,9.05,3.11,14.84,8.98,14.84,3.47,0,6.01-2.08,7.48-5.7-.1,0-.23-.1-.32-.17-.35-.12-.02-.43-.29-.54.07-.19,0-.12.17-.26l-.09-.07c.09-.31.5-.4.57-.59.13.07.34.03.51.03.62-2.13.94-4.68.94-7.55,0-3.02-.42-5.53-1.13-7.54l-5.13-.34c.1.33.2.69.28,1.07ZM60.41,45.8c-.47-.16.19-.38,0-.63.03-.17.24-.16.38-.24.07.02.16.16.24.03.23.21-.02.33,0,.56-.28-.02-.28.64-.63.28ZM61.45,48.15l-.17-.12.09-.14c.11.02.12.12.12.21l-.03.05ZM61.75,47.22c.1.07.15.17.12.3-.16.11-.21.35-.45.3-.14-.16-.09-.3-.05-.47-.14-.1-.38.05-.5-.12,0-.45-.07-1.08.47-1.34.26-.14.47.07.57.26.1.16-.02.35-.03.45.09.3-.33.33-.12.62ZM67.33,55.24h-.16s.02-.05.03-.09c.05,0,.1-.02.12.03v.05ZM70.63,56.15c-.05.23-.33.24-.51.16-.21-.09-.12-.35-.07-.51.1,0,.17-.03.24-.12.17.05.54.19.33.47ZM71.97,51.69h-.07v-.07h.07v.07ZM75.67,34.42v.09s-.09-.03-.07-.09h.07ZM74.76,38.92l.04.05h-.09l.05-.05Z" style="fill:#fff9c1;"/><path d="M87.14,35.1s.03.05.05.07c-.24.07-.5.07-.75-.03-.03-.03-.07-.06-.1-.09-.21-.01-.41-.03-.62-.04-.15.1-.31.1-.5.1-.03-.05-.07-.1-.11-.14-.96-.06-1.9-.13-2.74-.18v11.54h.01c.21.18.44-.03.63.19.05,0,.1.02.12-.03v-.09c.21-.09.36.28.54-.03.05.1.64.24.3.54.23.14-.07.3-.04.42-.17-.12-.24.11-.33.21-.45-.36-.75.3-1.22.24,0,0,0,0-.01,0v3.88c0,.87-.14,1.52-.65,2.03l-2.17,2.1c-.22.22-.51.43-.51.65s.15.44.44.44h2.47c-.04-.14,0-.34.02-.41-.17-.05-.03-.19-.05-.28.17-.14.17-.43.3-.62-.07-.07-.21-.05-.21-.17.05-.09.07-.19.17-.24.28-.07.1.31.36.33.31.38-.07.75.17,1.16-.05.06-.12.15-.19.24h7.82c.36,0,.44-.22.44-.44s-.29-.43-.51-.65l-2.17-2.1c-.51-.51-.65-1.16-.65-2.03v-16.52c-.1,0-.2-.01-.31-.02,0,0,0,0,0,0ZM83.5,37.73c.05-.09.14-.09.21-.04l-.03.21c-.1,0-.23-.04-.17-.17ZM84.19,42.01l-.03-.03-.09.07c.05-.35-.26-.02-.38-.24-.28.23-.1-.31-.42-.21.1-.07.02-.21-.07-.21l.03-.03-.09-.09.26-.21c-.26-.04-.47-.64-.14-.59-.09-.14,0-.23-.07-.36l.03.03c-.14-.26.26-.05.17-.33.16.19.12-.07.28,0-.09-.21.17-.1.21-.26.1.07.16.24.3.21l.09-.16c.16-.02.3.14.42.09v-.17c.19.14.44.4.63.29.1.05-.03.23.12.21l.03-.05c0,.26.33.47.26.68.03.02.05.11.12.09-.04.07-.24,0-.24.16.21.03.05.19.07.3-.08.03-.28.2-.17.34,0,0,0,0,.01,0l.03.05s-.03-.03-.05-.04c-.21.12.16.29-.07.41l-.09-.09c-.02.16-.1.02-.16.09l-.09-.16c-.07-.02-.1.07-.17.04-.09.1.02.14-.03.24-.07.02-.09-.05-.12-.07-.11.14-.47.09-.59.03ZM85.05,47.43c-.07-.07-.33,0-.24-.21.1.03.28-.07.33.09.02.05-.05.09-.09.12ZM86.36,47.05c-.03.33-.4.21-.59.17-.09-.17-.44,0-.37-.3-.4-.1-.12-.66-.09-.87l.09.09c.07-.05.02-.14.04-.21l.12.03c.07-.1-.02-.17.12-.24.05,0,.11-.02.14.03.05-.21.23.03.37-.03.35.17.5.42.68.78-.31.14-.09.61-.51.54ZM86.81,44.39c-.26-.02-.51.38-.71.12-.02.03-.05.05-.04.09-.07-.33-.62-.42-.42-.89.17-.05.09-.49.38-.33l.21-.12c-.03-.05-.09-.03-.14-.03.1-.14.31-.28.47-.21.38.1,0,.49.36.69-.1.21.05.5-.12.68Z" style="fill:#fff9c1;"/><path d="M86.3,33.85c-.24-.05-.03-.23.09-.21.03-.37.33-.38.45-.71.4-.14.63.09.92.09,0,.15.35.14.17.33l.21.04c.02.16-.12.28-.09.42l.29-.28c.09.17.23,0,.33,0,.08.09.22.12.35.15v-12.5c-.12.01-.25,0-.38.04-.29-.35.11-.6.38-.72v-2.35s-.09-.02-.14-.03c.02-.24-.3-.07-.42-.17-.03-.17-.35-.14-.42-.33-.45-.07.03-.35-.17-.66v-.26c.14-.21.45-.42.38-.63.33-.02.53-.11.76-.09v-5.18c0-3.48.22-6.15.22-7.89,0-.15-.15-.36-.36-.36h-.87c-.29,0-.44.22-.65.51-1.09,1.45-3.91,3.55-6.81,4.49-.44.14-.72.36-.72.58s.14.36.36.51l3.26,1.81c.36.14.51.51.51.87v6.84s.03-.01.05-.03c.21.03.21.23.29.36.28-.21.54.36.75-.07.21-.04.21.1.26.24.02.07-.07.09-.09.12-.03.02-.05-.02-.09-.03-.05.02-.03.07-.03.12l.24.17c-.21.12.17.33-.12.42,0,.14.17.21.12.36-.05,0-.1,0-.12.05s.05.07.09.12c-.19.07-.28.5-.59.42v.09c-.19-.09-.5.02-.57-.26.05-.02-.07-.1-.19-.18v4.03s.07,0,.1,0c.09-.23.17-.12.33-.24.23-.02.29.17.36.33-.02.19-.45.56,0,.63.03.02.07-.02.09-.03.05.14.19.21.3.28-.04.26.1.69-.12.92l-.05-.03c-.14.05-.3.35-.45.12l-.09.12c-.12-.06-.3-.08-.46-.12v8.14l2.35.16c-.04-.15.01-.34-.01-.49ZM83.86,9.81c.09-.05-.02-.19.12-.24.14-.02.19.14.3.21-.07.17-.31.21-.42.03ZM84.72,8.44h-.07v-.05h.07v.05ZM84.98,10.03h-.07v-.07h.07v.07ZM87.13,30.19v-.09l.03.05-.03.03ZM87.67,19.55c.17-.05.16.05.21.16l-.28-.03c-.02-.07.05-.09.07-.12ZM87.55,21c.3-.17.45.1.63.24-.09.23-.1.33-.21.54l-.33.05c.05.02.03.07.03.12-.31.05-.66.21-.87-.09.02-.43.42-.69.75-.87ZM85.61,6.41v-.14c.17-.05.26.14.4.21.03.16-.02.28-.12.38-.28.12-.37-.21-.42-.38.07.02.09-.05.14-.07ZM85.02,23.28c-.14.19-.23.05-.38-.03-.16-.19.14-.33.17-.45.07.21.38.24.21.48ZM85.59,22.5c-.29.03-.47.28-.78.17-.38-.07-.57-.71-.12-.83.05.09.19,0,.21-.09.05.09.14.09.21.04.14.1.35.16.49.12.16-.12.4-.3.63-.16.11.26.11.42-.04.66-.17.31-.4-.09-.59.09ZM85.98,23.28l.04.05c.1-.14-.14-.17,0-.33l.17-.14-.03-.03c.16-.02.33-.33.54-.21l.09.09.04-.05c.09.16.16.28.33.26-.02.05-.02.12-.09.16.21.03.26.26.17.42-.17.26-.31.52-.63.38l-.09-.09c-.19.26-.31-.14-.5-.12.14-.16-.07-.24-.04-.38Z" style="fill:#fff9c1;"/><path d="M94.14,34.35s0,.09.05.12c.16-.23.45-.07.71-.17,0,.32.34.41.41.64l2.39.16c-.08-.13-.24-.04-.3-.21.02-.19-.31-.23-.21-.38-.03-.02-.05-.05-.09-.03-.03.21-.12-.07-.21-.05-.05-.33-.38.02-.38-.33.07.02.09-.05.12-.09l-.16-.03.12-.12c-.05-.03-.03-.09-.03-.12.21-.1,0-.21.12-.35.21-.3.54-.28.87-.16.12.09.19.28.38.21.35.38.62.78.5,1.34-.24-.05-.3.5-.56.24l-.09.09,1.87.12c-.02-.94-.04-1.93-.05-2.97-.05,0-.1-.02-.13-.04-.28-.19-.68-.43-.71-.83.07-.07.28-.24.09-.3-.03-.14,0-.38.21-.49.07-.02.19.04.24-.05-.02-.02-.03-.04-.05-.07-.05-.03-.1-.08-.13-.2-.17-.17-.38-.33-.3-.59l-.09-.09c.09-.02.03-.1.05-.16.05.02.12.05.21.03l.07-.09s-.1-.09-.07-.16c.14-.16.45-.1.49-.26,0,.06.05.09.1.12,0-.26,0-.51,0-.78,0-6.02.09-10.73.39-14.23l-.07-.07c-.12.23-.16-.09-.28-.04-.31-.14-.05-.35-.26-.5,0-.16.07-.26.05-.42l.04.03c.15-.07.22-.21.29-.33.13-.05.25-.07.37-.07.07-.63.15-1.22.25-1.76-.03,0-.05,0-.08,0-.14-.09-.12-.17-.12-.36-.3.1-.61-.16-.71-.42.02-.07-.04-.14.03-.17l-.07-.09c.21-.1-.07-.28.07-.42.28-.02.28.36.56.35l-.05.03c.21.07.31.38.21.54l-.03.05.06.06c-.02-.19.1-.39.32-.45.57-2.62,1.45-3.88,2.81-3.88,2.98,0,4.92,5.6,6.01,10.95.09.09.17.19.27.27-.07.07-.13.12-.19.15.23,1.15.41,2.27.56,3.33.07.44.22.8.58.8.29,0,.43-.29.43-.65v-11.44c-.08.08-.18.15-.25.22-.23-.02-.47-.1-.59-.3.03-.1-.03-.17-.12-.21.03-.23.33-.28.42-.45.22-.11.41.13.55.24v-2.31c-.06-.03-.09-.07-.04-.16.01,0,.03.02.04.02v-2.16l-.17-.2c.1-.24-.14.03-.17-.21.05-.03.05-.09.05-.12l-.21-.17c.16-.1-.05-.23.12-.33l-.09-.09.12-.12c-.19-.12.03-.29-.03-.42.07.02.09-.05.12-.09l-.02-.09c-.06-.05-.14-.08-.24-.08-.36,0-.94.58-1.38,1.09-.51.58-1.01.87-1.38.87s-.8-.07-1.23-.44c-1.09-.87-2.32-1.52-3.47-1.52-1.79,0-3.23.66-4.4,1.78.13-.02.24-.08.29.1l-.03.24h-.05c-.02.12.07.23-.07.35-.16-.07-.37-.02-.47-.21.03-.06.03-.13.03-.18-3.28,3.49-4.29,10.78-4.59,17.18.02.02.04.05.07.07h-.08c-.11,2.32-.12,4.52-.12,6.38,0,2.03.03,4.19.11,6.38.04-.07.08-.14.12-.21l.24-.07ZM110.9,10.77v-.09.09ZM110.85,10.11l.17.03-.17.03v-.07ZM110.83,11h.07v.07h-.07v-.07ZM110.66,13.58h-.05v-.07h.05v.07ZM110.69,10.45v.03h-.09s.05-.05.09-.03ZM110.43,9.9v.07l-.04-.04.04-.03ZM110.31,11.07h.05l-.09.03.04-.03ZM111,7.21c-.03.09-.12-.02-.16-.03v-.09l.16.12ZM110.58,6.85s.05.02.08.03h0c.02-.06.12-.24.21-.12-.05.1-.13.09-.21.12,0,0,0,0,0,0,0,0,0,0,0,0-.03.01-.06.03-.08.06v-.09ZM109.52,14.81s0,.08-.01.12c.03.12.13.27-.02.37-.19-.12-.03-.23.02-.37,0-.04,0-.08.01-.12ZM107.12,6.89c.07-.03.12-.14.03-.21.12-.02.16-.14.17-.24.28.21.71-.44.87.12.17.17.38.33.3.59l.09.09c-.09.02-.03.11-.05.16-.05-.02-.12-.05-.21-.03l-.07.09s.1.09.07.16c-.14.16-.45.1-.49.26-.02-.17-.33-.21-.42-.14.02.03-.04.07-.05.09-.09.02-.09-.1-.09-.16,0-.09.02-.16.09-.21-.36-.05-.23-.31-.24-.56ZM103.07,5.48c.16-.09.44-.05.45.12-.16.12-.28-.05-.45-.03v-.09ZM100.66,6.73c.05.02.04.07.04.12-.07.02-.12-.09-.04-.12ZM97.84,21.91s0,.08-.01.12c-.01-.04,0-.08.01-.12-.03-.12-.13-.27.02-.37.19.12.03.23-.02.37ZM99.02,16.42h-.12c-.02-.05.02-.07.03-.09h.09v.09ZM98.85,5.34c.09-.12.28-.12.38,0,.1.17.24.4.03.57-.07.02-.17-.03-.21.05,0-.24-.33-.35-.21-.62ZM98.43,8.05c.24.1.63.14.75.45l-.04.05c.04.21.31.12.33.37.02.17-.02.33-.12.47-.24-.05-.42-.05-.54-.26.05-.23-.23-.21-.3-.37.07-.21-.19-.49-.09-.71ZM98.31,7.61v-.13s.01.09,0,.13v.17h-.07c.01-.06.05-.11.07-.17ZM98.31,19.25c.37.07.04.45.14.57-.36.21-.5-.17-.76-.36.24-.24.36-.23.62-.21ZM97.47,6.68c.26.03-.03-.21.16-.26.12.03.24.19.14.29-.05.14.1.1.16.17.02.21.35.43.05.63-.19-.07-.52-.05-.5-.35v-.49ZM96.68,23.26h.05v.07h-.05v-.07ZM96.55,27.06c.23.02.47.1.59.3-.04.1.03.17.12.21-.04.23-.33.28-.42.45-.26.14-.49-.24-.62-.3-.19-.3.14-.5.33-.66Z" style="fill:#fff9c1;"/><path d="M93.69,35.67l-.16.09.07.12c-.26.19-.61.5-.99.38.07-.26-.26-.17-.33-.26l-.02-.03c.52,10.38,2.49,20.87,9.24,20.87,5.72,0,7.59-5.49,7.91-14.38-.07-.01-.14-.03-.22-.1.05-.03.05-.09.05-.12-.43-.09-.14-.59-.47-.71l-.03-.47c.07.02.09-.05.12-.07-.05-.03-.03-.09-.03-.14.03,0,.05.03.09.05-.09-.45.42-.44.54-.83,0,0,0,0,.01-.01,0-.25,0-.49,0-.74,0-.08-.01-.15-.02-.22-.11-.06-.27-.09-.32-.22-.21-.03-.21-.11-.19-.21-.35,0-.56.22-.56.57,0,.24-.21,2.22-.68,4.62.02,0,.03,0,.05.02l.09.09.04-.05c.09.16.15.28.33.26-.02.05-.02.12-.09.16.21.03.26.26.17.42-.17.26-.31.52-.63.38l-.09-.09c-.05.07-.09.09-.14.09-.85,3.82-2.31,8.08-4.56,8.08-1.88,0-3.2-1.06-3.98-6.11-.1.09-.24.09-.35.23-.16.07-.33-.14-.38.05-.14-.21-.47-.14-.71-.17-.02-.14-.28-.23-.36-.24.21-.28-.3-.24-.21-.5.03.02.05-.02.07-.05l-.24-.12c.07.02.09-.05.12-.09.03-.19.1-.4-.04-.62.02.05.07.05.12.05-.05-.23.28-.3.45-.38-.05-.02-.24-.12-.12-.21.16.12.4.17.5,0-.03,0,.59.05.24-.21l.14.09.07-.12c.16.05.3.15.43.26-.25-2.35-.43-5.35-.52-9.18l-4.41-.29s0,.05,0,.07ZM97.13,37.5h.07v.05h-.07v-.05Z" style="fill:#fff9c1;"/><path d="M113.17,2.68c.02.05-.05.09-.09.12l.12.09s-.05.04-.04.09l.17.03c-.16.15-.1.28-.05.45l.09.09c-.09.03-.12.12-.21.05l-.03.21s-.05-.07-.09-.05l-.05.05c.07.07.24.16.17.33-.06.03-.12.07-.18.12l1.53,1.47c.51.51.65,1.16.65,2.03v7.8c.32.26.52.73,0,.9v18.26s.1,0,.15,0c.33-.26.75.12,1.04.3l.17.21c-.1.24.14-.03.17.21-.05.03-.05.09-.05.12l.21.17c-.16.1.05.23-.12.33l.09.09-.12.12c.05.03.07.07.08.11l3.95.26v-5.49h1.34c.19-.1-.08-.27.06-.41.28-.02.28.36.56.35l-.05.03s.03.02.04.03h5.44v5.8c.51.04.85-.28,1.37.05l.08-.23c.18-.19.16.37.37.1l-.13-.24c.5-.08.52-.68,1.08-.44.37-.26,1.02.24,1.13-.37.45-.1.34.24.76.24.1-.26.29,0,.45,0,.21.13.34.24.32.5.18.16-.11.1-.08.26.06.05.17.06.24.09v-6.09c-.08.09-.19.17-.28.24-.23-.02-.47-.1-.59-.3.04-.1-.03-.17-.12-.21.04-.22.33-.28.42-.45.23-.12.43.16.57.26v-13.18s-.08-.01-.13-.03c-.24.17-.68-.16-.75.24-.3.07-.23-.16-.5-.16-.07.17-.19,0-.3,0-.14-.09-.23-.16-.21-.33-.12-.1.07-.07.05-.17-.09-.07-.29-.02-.21-.21-.04-.02-.05-.05-.09-.03.14-.03.21-.28.21-.38.09.09.12-.02.21-.03.02-.07-.07-.09-.09-.14h-.17c-.07-.17.14-.37.21-.49.12-.03.28.05.35-.09.02-.09-.05-.12-.09-.17h-.17c.1-.24.28-.26.42-.45l.05.03c.03-.05.12-.09.12-.16.12.19.33-.05.45.03v-.12c.21-.14.43.09.63.15v-6.91c0-.87.14-1.52.65-2.03l2.17-2.1c.14-.22.51-.44.51-.65s-.15-.44-.43-.44h-11.37c-.29,0-.44.22-.44.44s.36.43.51.65l2.17,2.1c.51.51.65,1.16.65,2.03v9.39c.22.07-.04.28.12.38-.03.1.33.19.04.33.09,0,.19.14.09.21l.21.36-.33.05.04.24.17-.03.09.3c-.09-.02-.16,0-.21.07l.07.09-.21.09.05.03c-.07.03-.1.06-.12.09v.09c.04.09.15.19.03.29-.01,0-.02,0-.03,0v1.73c.07,0,.14,0,.21.03.44.13.36.62.33,1.08,0,0,.02,0,.03-.01l.05.03c.12-.21.31-.02.45-.07l-.03.03c.1.17.54.3.49.71,0,.35-.24.52-.33.9-.17.09-.4.33-.66.17-.05-.12-.26-.17-.38-.09,0-.13-.07-.21-.15-.28v.49c0,.17.18.25.33.27-.09.23-.19.36-.09.62-.11.03-.16.19-.24.28v.19s.02,0,.03,0c.03.11,0,.18-.03.24v1.22h-7.39v-13.06s-.06,0-.09-.03l-.09-.09-.03.05c-.09-.16-.16-.28-.33-.26.02-.05.02-.12.09-.16-.21-.03-.26-.26-.17-.42.17-.26.31-.52.63-.38h0s0-5.21,0-5.21c0-.87.14-1.52.65-2.03l2.17-2.1c.14-.22.51-.44.51-.65s-.15-.44-.43-.44h-10.54l-.05.05s.05.1.12.09ZM133.25,34.78h.05v.07h-.05v-.07ZM131.27,20.61h-.07v-.05h.07v.05ZM132.09,23.1l.16-.16c.07.23.26.09.33.28-.02.19.31.23.21.38.03.02.05.05.09.03.04-.21.12.07.21.05.05.33.38-.02.38.33-.07-.02-.09.05-.12.09l.16.03-.12.12c.05.03.03.09.03.12-.21.1,0,.21-.12.35-.21.29-.54.28-.87.16-.12-.09-.19-.28-.38-.21-.35-.38-.62-.78-.5-1.34.24.05.3-.5.56-.24ZM129.24,12.46c-.05-.02-.12.04-.16-.03-.03-.11.03-.19.12-.21-.02-.12-.1-.19-.21-.21-.07-.26.14-.5.24-.71l.09.09c.05-.07.17-.11.12-.21l-.03-.05c.1-.24.29-.17.45-.36.16-.07.33.14.38-.05.14.21.47.14.71.17.02.14.28.23.37.24-.21.28.29.24.21.5-.04-.02-.05.02-.07.05l.24.12c-.07-.02-.09.05-.12.09-.04.19-.11.4.03.62-.02-.05-.07-.05-.12-.05.05.23-.28.3-.45.38.05.02.24.12.12.21-.16-.12-.4-.17-.5,0,.03,0-.59-.05-.24.21l-.14-.09-.07.12c-.42-.12-.71-.54-.97-.83ZM129.17,26.26c.33-.1.47-.43.87-.36.09-.07.33-.07.45,0,.28.19.68.43.71.83-.07.07-.28.24-.09.3.03.14,0,.38-.21.49-.07.02-.19-.03-.24.05.02.02.03.04.05.07.05.03.1.09.13.2.17.17.38.33.3.59l.09.09c-.09.02-.03.1-.05.16-.05-.02-.12-.05-.21-.03l-.07.09s.1.09.07.16c-.14.16-.45.11-.49.26-.02-.17-.33-.21-.42-.14.02.04-.03.07-.05.09-.09.02-.09-.1-.09-.16,0-.09.02-.16.09-.21-.36-.05-.23-.31-.24-.56.07-.03.12-.14.03-.21h0c-.11-.05-.22-.13-.35-.03-.03-.19-.43-.26-.28-.54-.12-.14-.07-.26-.17-.42.19-.19-.12-.52.17-.71ZM126.3,29.68c.09-.02.14.14.16.24-.12.03-.23.12-.36.09-.17-.17,0-.44.21-.33ZM123.3,28.01c.05.02.03.07.03.12-.07.02-.12-.09-.03-.12ZM121.07,29.32c.24.1.62.14.75.45l-.03.05c.03.21.31.12.33.36.02.17-.02.33-.12.47-.14-.03-.26-.05-.35-.09-.11-.03-.19-.15-.3-.21-.01-.06-.01-.12,0-.18-.07-.04-.15-.07-.18-.15.07-.21-.19-.49-.09-.71ZM120.2,6.65v.09l-.03-.05.03-.03ZM119.45,19.88v.26c-.14.21-.45.42-.38.62-.35.02-.56.12-.8.09-.17-.05-.56-.05-.63-.35l.09-.07c-.26-.1-.17-.44-.37-.56l.07-.07-.12-.09c.07-.05.16-.09.17-.17-.16-.09-.07-.16-.09-.24.36.04.16-.38.33-.54l.05.04.07-.09.14.12c.07-.24.26-.16.45-.12-.02.24.3.07.42.17.04.17.35.14.42.33.45.07-.03.35.17.66ZM118.47,8.15s.01.09,0,.13v.17h-.07c.01-.06.05-.11.07-.17v-.13ZM118.35,3.67h.05v.07h-.05v-.07ZM118.35,4.76v.16-.16ZM118.21,2.97v.12-.12ZM118.09,3.46v.05s-.05-.02-.09-.05h.09ZM117.63,7.35c.26.03-.03-.21.16-.26.12.04.24.19.14.3-.05.14.1.1.16.17.02.21.35.44.05.63-.19-.07-.52-.05-.5-.35v-.48ZM116.92,4.88h.07v.07h-.07v-.07ZM117.13,5.13l-.17.05-.03-.05h.21ZM116.75,4.26v.09-.09ZM116.83,5.51v.04h-.09l.09-.04ZM116.85,6.52v.05h-.05v-.05h.05ZM117.04,15.79l.03.03c.05-.03.05-.09.05-.12.17-.17.54-.36.78-.26.24-.17.62,0,.8,0,.14.28.31.12.51.3-.05.03-.05.09-.05.12.43.09.14.59.47.71l.03.47c-.07-.02-.09.05-.12.07.05.03.04.09.04.14-.04,0-.05-.03-.09-.05.09.45-.42.44-.54.84-.19.35-.47-.12-.66.09-.38.12-.56-.4-.92-.21-.12-.1,0-.4-.24-.38-.05.09-.14.09-.21.14.24-.33-.21-.47-.17-.8.03-.38.07-.77.3-1.08ZM114.87,4.67v-.09s.07.05.05.09h-.05ZM115.41,31.91v-.03h.14l-.14.03ZM115.69,7.04h-.05v-.07h.05v.07ZM116.12,6.59c-.09-.05-.07-.05,0-.12v.12ZM116.49,6.66h-.07v-.07h.07v.07ZM116.17,3.39h.05v.05h-.05v-.05ZM116.12,3.75h.07v.07h-.07v-.07ZM116.09,4.47v.03c-.05,0-.1.02-.12-.03h.12ZM115.88,4.14h.07v.05h-.07v-.05ZM115.55,4.17s.05.05.03.09h-.03v-.09ZM115.38,3.84h.09v.03h-.09v-.03ZM115.29,4.14v.09s-.05-.03-.07-.05l.07-.03ZM115.08,4.8l.14-.09c-.1-.05-.09-.16-.09-.24h.45l-.03.03c.24.12.47.3.75.35-.03.14.4.49.04.75.05.05.02.16.09.21-.05.05-.12.05-.16.12-.14-.35-.63.17-.8-.3-.02-.07-.1-.42-.24-.57.02-.03.05-.05.04-.09-.04-.09-.1-.04-.17-.05.03-.02.07-.03.05-.07l-.05-.05ZM115.05,6.22s-.02.05-.03.09c0-.05-.04-.07-.05-.09h.09ZM114.92,4.14s-.02.05-.05.09l-.03-.05.09-.03ZM114.75,5.8l-.03.04h-.05l.09-.04ZM114.59,4.64l-.05.03h-.03l.09-.03ZM114.42,4.17h.03s-.03.04-.03.06v.06s0-.04,0-.06v-.06ZM114.04,4.71h.07v.07h-.07v-.07Z" style="fill:#fff9c1;"/><path d="M133.7,37.49v-.12s-.04.07-.05.11h.05Z" style="fill:#fff9c1;"/><path d="M114.78,37.3c-.04.05-.12.09-.12.17l.05.03c-.1-.03-.19.04-.21.12-.14.12-.43-.1-.59.09l-.09-.09c-.06.04-.15,0-.24-.03v4.06c.07.04.13.1.2.11.16.24-.03.44-.09.66l-.12.1v9.11c0,.87-.14,1.52-.65,2.03l-2.17,2.1c-.14.22-.51.43-.51.65s.14.44.43.44h11.37c.29,0,.44-.22.44-.44s-.36-.43-.51-.65l-2.17-2.1c-.51-.51-.65-1.16-.65-2.03v-10.52c-.15-.08-.26-.27-.42-.38.17-.17.28-.21.42-.21v-3.22l-4.11-.27c-.06.11-.19.15-.27.29ZM118.92,42.81c.19.12.03.23-.02.37,0,.04,0,.08-.01.12-.01-.04,0-.08.01-.12-.03-.12-.13-.26.02-.37ZM115.02,38.19h.05v.07h-.05v-.07ZM114.78,43.06c.07-.02.09.05.14.09h-.14v-.09ZM117.73,44.53h.05v.07h-.05v-.07ZM117.61,48.33c.23.02.47.1.59.3-.04.1.03.17.12.21-.04.23-.33.28-.42.45-.26.14-.49-.24-.63-.3-.19-.3.14-.5.33-.66ZM115.55,49.72c.23,0,.03-.49.33-.24.12-.16.33-.16.45-.05l.09.09.09-.09.24.21c.03-.05.09-.04.14-.04-.21.33.49.3.12.57.24.17-.14.45.16.59-.17.12-.21.26-.42.33l.09.09c-.3.1-.4.31-.71.24-.33.24-.57-.09-.99-.03-.42-.04-.04-.47-.42-.63.17-.17-.02-.33.16-.5-.26-.17.14-.16.05-.36.16-.14.35-.24.57-.26,0,.03.03.07.05.09Z" style="fill:#fff9c1;"/><path d="M131.77,38.76c-.19.05-.42-.08-.52.13-.03.13.08.18.13.26h.26c-.16.37-.42.39-.63.68l-.08-.05c-.05.08-.19.13-.19.24-.18-.29-.5.08-.68-.05v.18c-.42.29-.87-.45-1.26-.18-.26-.71-.97.11-1.21-.58.05.03.11-.02.13-.05-.1-.13-.34-.21-.26-.5l.08-.08c-.24-.1-.08-.29-.08-.42,0-.05.05-.1.08-.13-.1-.58-.59-.12-.88-.42h-.12s0,6.41,0,6.41c.13-.1.34-.08.48-.03.12.21.35.66-.03.8-.19.07-.28-.12-.42-.17-.01-.01-.02-.03-.03-.04v1.19c.21-.16.66-.18.24-.52.14-.12-.12-.28.12-.33.17.05.54.02.47.33.1.21-.37.38.07.33h.14c-.04.12.1.21.21.26.05.16.05.49,0,.69l-.26.21c-.19-.02-.38.07-.57-.07-.09.03-.23-.12-.3-.14.02-.05-.03-.12.03-.15-.06-.04-.1-.08-.15-.12v5.21c0,.87-.14,1.52-.65,2.03l-2.17,2.1c-.14.22-.51.43-.51.65s.14.44.43.44h11.37c.29,0,.44-.22.44-.44s-.36-.43-.51-.65l-1.52-1.47v.02h-.45l.03-.03c-.24-.12-.47-.3-.75-.35.03-.14-.4-.48-.03-.75-.05-.05-.02-.16-.09-.21.05-.05.11-.06.15-.11-.12-.36-.17-.76-.17-1.23v-13.48h-.02c-.01.22-.24.45-.33.6ZM129.37,41.69h.12c.02.05-.02.07-.04.09h-.09v-.09ZM127.55,45.14h-.21c-.16-.1.12-.24-.09-.33.51-.21-.12-.59.38-.75l.03.03c-.05-.36.26-.03.38-.24.1.17.3-.02.33.16l.09.09c.12-.23.16.09.28.04.31.14.05.35.26.5,0,.16-.07.26-.05.42l-.03-.03c-.16.07-.23.21-.3.33-.24.09-.45.1-.66.03,0-.36-.31.05-.42-.24ZM127.74,51.37c-.05-.02-.03-.07-.03-.12.07-.02.12.09.03.12ZM128.33,48.3l.05-.03c-.21-.07-.31-.38-.21-.54l.03-.05-.06-.06c.02.22-.15.46-.42.47-.28.09-.45-.23-.57-.38,0-.21-.07-.63.28-.66.24-.1.36.02.47.17.05-.03.11-.04.17-.02.14.09.12.17.12.36.3-.1.61.16.71.42-.02.07.03.14-.03.17l.07.09c-.21.1.07.28-.07.42-.28.02-.28-.36-.56-.35ZM128.92,49.19c-.02-.17.02-.33.12-.47.24.05.42.05.54.26-.05.23.23.21.3.37-.07.21.19.49.09.71-.24-.1-.62-.14-.75-.45l.03-.05c-.03-.21-.31-.12-.33-.37ZM129.17,52.77c-.1-.17-.24-.4-.03-.57.07-.02.17.03.21-.05,0,.24.33.35.21.62-.09.12-.28.12-.38,0ZM129.88,53.81c-.17-.1-.38.14-.45-.12l.03-.24h.05c.02-.12-.07-.23.07-.35.16.07.36.02.47.21-.09.19.05.36-.17.5ZM130.08,50.63s-.01-.09,0-.13v-.17h.07c0,.06-.05.11-.07.17v.13ZM130.21,55.11h-.05v-.07h.05v.07ZM130.21,54.02v-.16.16ZM130.35,55.81v-.12.12ZM130.47,55.32v-.05s.05.02.09.05h-.09ZM130.92,51.43c-.26-.03.04.21-.15.26-.12-.03-.24-.19-.14-.3.05-.14-.1-.1-.16-.17-.02-.21-.35-.44-.05-.63.19.07.52.05.5.35v.49ZM131.64,53.9h-.07v-.07h.07v.07ZM131.43,53.66l.17-.05.03.05h-.21ZM133.69,54.56l.04.05-.09.03s.02-.05.05-.09ZM133.27,54.56s.05.03.07.05l-.07.03v-.09ZM133.1,54.91h.09v.03h-.09v-.03ZM133.01,54.52v.09s-.05-.05-.03-.09h.03ZM132.61,54.59h.07v.05h-.07v-.05ZM132.47,54.28c.05,0,.1-.02.12.03h-.12v-.03ZM132.36,54.96h.07v.07h-.07v-.07ZM132.33,55.34h.05v.05h-.05v-.05ZM131.71,52.21h.05v.05h-.05v-.05ZM131.81,54.52v-.09.09ZM131.72,53.27v-.04h.09l-.09.04ZM132.14,52.12v.07h-.07v-.07h.07Z" style="fill:#fff9c1;"/><path d="M138.89,49.69l.18.15c-.16.1.05.23-.12.33l.09.09-.12.12c.19.12-.03.3.04.42-.07-.02-.09.05-.12.09l.03.21c-.05.16-.21.17-.3.33-.03.05-.12.09-.12.17l.05.03c-.1-.03-.19.03-.21.12-.14.12-.43-.1-.59.09l-.09-.09c-.1.07-.28-.12-.42,0-.19-.23-.33-.47-.63-.54.02-.07-.05-.09-.09-.12l.09-.09s-.05-.11-.12-.09c-.02-.05.05-.09.09-.12l-.12-.09s.05-.04.03-.09l-.17-.03c.13-.13.11-.24.07-.38-.68.71-.96,1.87-.96,3.01,0,1.74.72,3.62,2.61,3.62s2.68-1.88,2.68-3.62c0-1.5-.5-3.04-1.78-3.53ZM135.86,54.24s0-.08.01-.12c-.03-.12-.13-.27.02-.37.19.12.03.23-.02.37,0,.04,0,.08-.01.12ZM136.48,52.03c-.37.21-.5-.17-.76-.36.24-.24.36-.23.62-.21.36.07.04.45.14.57ZM138.37,52.72c-.21.21-.3-.17-.45-.24,0-.17.04-.29.24-.29.26-.09.12.24.35.26.02.12-.03.21-.14.28Z" style="fill:#fff9c1;"/><path d="M144.66,38.12c.19-.07.28-.5.59-.42v-.09c.19.09.5-.02.57.26-.07.03.23.19.35.3-.03-.02-.07.02-.09.03l.09.12.44.03c-.05-.15-.26-.28-.11-.44.05-.1.19-.09.24-.21l.17.17s.05-.07.09-.05c.11.07-.05.26.12.26.1.14-.19.17-.05.29,0,0,0,0,0,0l1.66.11c-.03-1.48-.04-3.08-.04-4.82v-.05c-.07-.05-.11-.12-.1-.23-.09-.45-.17-.85-.04-1.25.06.06.11.08.16.08.08-1.86.34-3.63.9-4.95-.04.01-.08.03-.11.07.03-.07.09-.15.17-.21.58-1.27,1.46-2.08,2.77-2.08,1.79,0,2.76,1.59,3.25,4.42.14-.18.31-.34.57-.29.03-.07.17,0,.16-.12.52-.17.52.43.75.71-.1.09.07.14-.07.21.14.16.09.28.03.45-.1.1-.19.19-.17.35-.02-.03-.03-.07-.07-.05-.05.04-.05.09-.05.12l-.04-.03c-.21.21-.43.26-.68.33-.09,0-.15-.03-.21-.06.16,1.57.22,3.41.22,5.49v.18c.1-.02.23-.02.34-.02.16.12.33.26.3.42.38.21-.17.31-.3.38-.16.06-.27.05-.35,0,0,.19,0,.38,0,.57.03-.02.07-.04.1-.03,0,.21.17.07.25.23l.05-.05c.05.08.1.04.15.13-.01.01-.03.03-.02.05l.07.07s-.02.04-.02.07c0,.03.04.03.07.03.02-.04.07-.16.13-.08-.13.1.04.1.02.21.04-.03.03-.08.08-.1.14.04-.02.17.07.23-.02.06.19.11.03.2l1.19.08v-.05c.05.05.15.05.19,0l.16-.17s-.05-.05-.03-.09c.28-.07.28-.69.66-.45.12.19.1.28.17.5-.23.02-.1.31-.33.3,0,0,0,0,0,.02l2.29.15c.06-.95.09-1.88.09-2.76,0-6.55-1.63-11.4-4.48-13.68-.06.04-.12.09-.18.13-.16-.35-.37.17-.54-.12-.05.03-.05.09-.05.12-.21-.12-.42.07-.66,0-.09.03-.14.14-.24.05-.14-.12-.02-.33-.17-.42l-.09.09c-.14-.17-.03-.35-.12-.56l.09-.21-.21-.07.12-.09-.08-.08c-.63-.2-1.3-.3-2-.3-1.59,0-3.11,1.16-4.05,2.39h-.14c0-3.79.09-6.9.3-9.39-.02,0-.04,0-.07,0v.21h-.17c0-.05.05-.14-.03-.17l-.12.17c-.16-.03-.37.17-.54.12-.15.12-.38-.03-.56-.12l-.12-.17c-.02.05-.07.05-.12.05.12-.45-.57-.14-.3-.59.11-.07.16-.24.12-.42-.03-.02-.05-.1-.12-.09l.26-.24-.05-.04c.21-.07.19-.38.42-.38.17-.28.28-.1.5-.24.07.38.3-.24.45.07.01-.02.02-.03.03-.04h-.06l.12-.09s0,.04-.02.06c.1-.04.22.09.34.03.14.09-.1.24.14.21.02,0,.03.02.05.03.22-1.92.53-3.39.94-4.45-.28.08-.54.1-.78-.14-.3.07-.24-.24-.42-.37.03-.12.05-.35-.12-.38.05-.02.12.03.15-.04-.21-.16.04-.33.17-.38-.05-.02-.07-.1-.12-.09.05-.3.36-.31.49-.54l-.03-.04c.23-.28.52-.03.8-.05l.12.14.03-.05c.1.18.41.29.46.56.45-.55.99-.82,1.61-.82,1.21,0,2.3.78,3.23,1.92.14-.01.28,0,.42.09l.03-.03c.3.33.85.47.63.99-.02.1.05.19.14.21-.08.08-.15.15-.21.21,1.44,2.46,2.28,5.53,2.28,6.6,0,.51.36.8.65.8.36,0,.58-.29.58-.8,0-.74-.04-1.53-.11-2.35-.11,0-.21-.07-.24-.18-.05-.1.09-.1.12-.16.03,0,.06,0,.08.02-.06-.53-.13-1.07-.22-1.62-.05.03-.11.06-.16.09-.19-.14-.49.19-.69-.07l-.47-.47c.07-.09-.14-.17-.12-.3,0-.45.21-.87.59-1.2l-.05-.05c.14-.17.3.02.46-.04-1.03-3.87-3.16-7.29-6.93-7.29s-6.08,3.13-7.47,8.15c.35.07.62-.38,1.01-.34.16.05.33-.05.3.21.09.26.54.47.24.78.14.3-.3.19-.42.35l-.12.12c-.21-.19-.43.02-.62-.21-.05,0-.11-.02-.12.03v.09c-.21.09-.36-.28-.54.03h0c-.32,1.32-.57,2.76-.77,4.29.11,0,.21.03.27.05l.03.03.09-.07c-.05.35.26.02.38.24.28-.23.1.31.42.21-.1.07-.02.21.07.21l-.03.04.09.09-.26.21c.26.03.47.64.14.59.09.14,0,.23.07.36l-.03-.03c.14.26-.26.05-.17.33-.16-.19-.12.07-.28,0,.09.21-.17.1-.21.26-.1-.07-.16-.24-.3-.21l-.09.16c-.16.02-.3-.14-.42-.09v.17s-.03-.02-.04-.03c-.14,1.51-.23,3.09-.28,4.72.06.07.11.14.17.22.03,0,.09-.02.12.03l-.09.09c.16.16.05.42.09.63.24.05.03.23-.09.21-.02.21-.13.31-.24.42-.01.63-.02,1.27-.02,1.91,0,2.74.05,5.23.14,7.52.19-.23.31.15.49.13-.14.16.07.24.03.38l-.03-.05c-.1.14.14.17,0,.33l-.17.14.03.03c-.09.01-.19.13-.3.19.05.93.1,1.82.16,2.68l1.07.07s-.05-.06-.09-.11ZM158.27,25.51c.05-.28.35-.26.54-.36.15.28.33.82-.03,1.08-.16,0-.35.19-.47,0-.14-.17-.09-.5-.04-.71ZM158.15,26.35c.14.03.16.19.21.3-.07.14-.04.38-.26.38l-.21-.05c-.04-.16.02-.5.26-.63ZM156.9,27.86l.16-.21-.03-.05c-.02-.24.35,0,.24-.3.24.05.47-.21.68,0-.14.38.57.28.24.63l.12.14c-.12.1-.17.21-.3.28l.05.05c-.16.31-.44.54-.75.5-.26,0-.28-.21-.38-.38.19-.33-.21-.38-.03-.66ZM152.73,23.6s.09.03.07.09h-.07v-.09ZM157.98,10.55c.09.1.31.36.04.5-.12-.02-.33-.05-.45-.21.02-.04.05-.05.03-.09l-.07-.09c.17-.1.35.05.45-.12ZM156.43,6.42h.07v.07h-.07v-.07ZM147.1,37.1c-.05,0-.1.02-.14-.03v-.09c.07,0,.26.04.14.12ZM148.09,37.54c.07.3-.28.26-.42.42-.36.09-.38-.36-.54-.5.07-.31.17-.3.36-.47.31-.02.47.38.59.56ZM146.75,10.22h.07v.05h-.07v-.05ZM144.96,32.15l.05.03c.14-.05.3-.35.45-.12l.09-.12c.19.11.54.07.75.24l.09-.09.21.17c.07-.12.21-.14.33-.12.03.36.59.42.42.78l.09.09c-.07-.02-.09.07-.12.09.02.02.04.05.07.03.03.42-.56.36-.42.71l-.28.05v.12c-.24.02-.38-.05-.56.03-.04-.07-.14-.02-.21-.03-.09.23-.17.12-.33.24-.23.02-.29-.17-.36-.33.02-.19.45-.56,0-.63-.03-.02-.07.02-.09.03-.05-.14-.19-.21-.3-.28.04-.26-.1-.69.12-.92ZM145.17,35.32c-.07-.21-.38-.24-.21-.49.14-.19.23-.05.38.03.16.19-.14.33-.17.45ZM144.72,20.21c.1,0,.23.03.17.17-.05.09-.14.09-.21.03l.03-.21ZM144.39,36.2c-.16.12-.4.3-.63.16-.1-.26-.1-.42.03-.66.17-.31.4.09.59-.09.3-.03.47-.28.78-.17.38.07.57.71.12.83-.05-.09-.19,0-.21.09-.05-.09-.14-.09-.21-.04-.14-.1-.35-.16-.49-.12Z" style="fill:#fff9c1;"/><path d="M157.55,40.33c.19.26-.28.23-.17.5-.19.26-.3.42-.54.57-.02-.03.02-.05.03-.09l-.09-.07c-.05.19-.33.1-.45.12l-.12-.05.03-.04-.21-.09c.05-.02.05-.07.05-.12-.05-.16-.31-.04-.21-.24h.03c-.21-.3.05-.61,0-.92.19-.02-.05-.11.09-.17h0l-.31-.02v.02s-.09,0-.12.04l.04.05-.13.05.03.02c-.21.08.07.18-.05.28-.02,0-.03-.01-.05-.03,0,.12-.05.18-.15.25-.02-.04-.06-.01-.1-.02-.03.02.05.14-.05.13-.04,0-.07-.06-.13-.07-.07.12-.15.1-.25.1.01-.02-.01-.03-.02-.04-.02-.01-.03,0-.05.02v.07l-.13-.09-.02.03c-.04,1.71-.12,3.24-.23,4.59.11,0,.23-.04.23.17-.07-.02-.09.05-.12.09l.16.03-.12.12c.05.03.03.09.03.12-.21.1,0,.21-.12.35-.04.06-.1.1-.15.14-.5,4.86-1.55,7.08-3.32,7.08-1.98,0-3.06-2.62-3.51-9.48-.06-.03-.12-.08-.2-.12-.12-.05-.05-.19-.07-.29.13-.11.06-.46.21-.53,0-.04,0-.09,0-.13-.03,0-.06.01-.08.03,0-.05,0-.1-.05-.12-.12.04-.1-.14-.12-.21-.08-.18.1-.28.23-.36-.04-.89-.07-1.85-.1-2.86l-1.8-.12.06.12s-.07.02-.09.05c.05.14.17.19.24.37-.02.23-.07.36-.24.5l-.05-.03-.12.12-.03-.05c-.14.05-.14.12-.26.21.02-.14-.07-.14-.16-.24l-.12.12c-.12-.05-.04-.35-.21-.21-.21-.04-.21-.23-.29-.37-.28.21-.54-.36-.75.07-.21.03-.21-.11-.26-.24-.02-.07.07-.09.09-.12.04-.02.05.02.09.03.05-.02.03-.07.03-.12l-.24-.17c.09-.05.07-.12.04-.19l-.94-.06c.29,3.79.74,6.83,1.31,9.26h.02v.07h0c1.62,6.75,4.25,8.7,7.39,8.7,5.44,0,8.03-8.12,8.8-15.51-.26.09-.46.11-.81.08-.24-.09-.23-.31-.38-.5l.12-.09s-.04-.05-.09-.04c.16-.35.47-.68.89-.71.11.06.24.03.38.03,0-.04,0-.08,0-.12l-2.06-.14c.06.16.06.32-.18.48ZM144.42,48.54c-.14.02-.19-.14-.3-.21.07-.17.31-.21.42-.03-.09.05.02.19-.12.24ZM154.7,48.46l.14-.17c-.17-.07-.24-.23-.21-.42.09.1.44.1.24.33l.12.05c-.04.12-.17.17-.3.21ZM155.5,43.29c-.02-.26.16-.47.33-.63.1.05.19-.12.21.05-.12.26.1.57-.21.75-.14.02-.3-.02-.33-.17ZM157.14,44.96l-.24.07s0-.09-.05-.12c-.16.23-.45.07-.71.17,0-.4-.52-.44-.42-.83-.05-.19.07-.36.05-.54l.16-.09-.07-.12c.26-.19.61-.51.99-.38-.07.26.26.17.33.26l.35.36c.05.47-.14.82-.38,1.22Z" style="fill:#fff9c1;"/><path d="M154.91,21.75s.02,0,.04.01c-.01,0-.02,0-.04-.01Z" style="fill:#fff9c1;"/><path d="M166.61,40.57l.03.05-.21.24c.17.02.14.24.09.33-.05-.12-.19-.03-.24-.12-.09.09,0,.21.03.3h.03v.03c-.2.13-.5-.08-.46.26,0,0,0,0,0,0v.03s0-.02,0-.04c-.29-.2-.29.42-.59.21-.03.02-.05.1-.12.09l-.04-.05c-.09.24-.28.02-.38.09-.02-.02-.05-.05-.09-.03-.07.02-.02.1-.03.15-.11,0-.21-.03-.3-.09v.75c.11-.07.22-.13.37-.11l.09-.12.3.17c-.2.19-.48.28-.75.28v1.44c.09.12.17.23.27.36.03,0,.09-.02.12.03l-.09.09c.16.16.05.42.09.63.24.05.03.23-.09.21-.02.26-.17.34-.3.48v2.35c.06-.04.11-.1.13-.2.1-.05.29-.1.38.03-.11.19-.31.26-.51.34v2.88c0,.87-.15,1.52-.65,2.03l-2.17,2.1c-.06.09-.16.19-.26.28.02.11-.13.32.09.34.03.16.02.3,0,.45.03,0,.06.02.1.02h4.15c.21-.07.38-.22.64-.14.09.02.17.07.24.14h6.35c.29,0,.43-.22.43-.44s-.36-.43-.51-.65l-.76-.74c-.12.07-.24.17-.28.31-.14.09-.35.07-.38.26-.31-.54-.69.35-.92-.21h-.12s.02-.07.03-.09c-.17-.31-.69-.28-.66-.63-.09-.45-.17-.85-.03-1.25.12.12.21.07.33.09l-.09-.17c.1-.12.3-.07.29-.29-.18-.4-.23-.86-.23-1.42v-10.97l-3.4-.23s.06.09.09.13ZM168.43,54.41c.03.42-.56.36-.42.71l-.28.05v.12c-.24.02-.38-.05-.56.03-.03-.07-.14-.02-.21-.03-.09.23-.17.12-.33.24-.23.02-.3-.17-.36-.33.02-.19.45-.56,0-.63-.03-.02-.07.02-.09.03-.05-.14-.19-.21-.3-.28.03-.26-.1-.69.12-.92l.05.03c.14-.05.3-.35.45-.12l.09-.12c.19.1.54.07.75.24l.09-.09.21.17c.07-.12.21-.14.33-.12.04.36.59.42.42.78l.09.09c-.07-.02-.09.07-.12.09.02.02.03.05.07.03ZM166.61,51c.09-.12.17.02.24.03.03.09-.04.12-.07.17l-.17-.21ZM167.51,51.87c.1.05.14-.07.21-.12.26.03.5.07.68.29.03.17-.12.3-.09.5-.07.26-.4,0-.5.24-.16-.04-.21-.28-.42-.24-.24-.24.1-.43.12-.68ZM169.15,45.23c.02.05-.02.07-.03.09l-.09-.09h.12ZM168.93,47.67c.1-.07.24-.17.36-.09.24.02.36.38.14.5l-.05-.03c-.09.21-.16.02-.3.12-.17-.12-.26-.31-.16-.5ZM167.63,49.55l.21.17c.1-.12.3.03.42.12.35.12.02.43.3.54-.07.19,0,.12-.17.26l.09.07c-.09.31-.5.4-.57.59-.24-.14-.76.14-.8-.24-.12-.16-.21-.16-.3-.3.16-.17-.1-.17-.12-.33-.28.1-.05.36-.3.49-.45.09-.9.4-1.29,0-.3.07-.24-.24-.42-.36.03-.12.05-.35-.12-.38.05-.02.12.04.16-.03-.21-.16.03-.33.17-.38-.05-.02-.07-.1-.12-.09.05-.3.37-.31.49-.54l-.04-.03c.23-.28.52-.04.8-.05l.12.14.04-.05c.1.19.47.31.47.62l.16.3c.09-.03.04-.14.05-.21.02.05.07.03.12.03l.09-.07.03.04c.12-.16.33-.28.54-.3ZM165.81,47.84c.09.02.12-.17.21-.05.09-.21.19.03.3.05.1.28-.19.35-.35.45-.24-.09-.23-.31-.16-.45ZM166.76,47.91c-.1.05-.14-.07-.21-.12l.24-.12c-.02.09.04.19-.03.24ZM167,44c-.02.21.07.47-.21.54.02.19-.17.24-.28.33l-.14-.03-.03.12c-.23-.19-.47.05-.66-.21h-.14s.03-.05.05-.09c-.3-.02.02-.35-.33-.24.02-.17.1-.31-.05-.42.02-.09.16-.17.05-.24.17-.12.12-.45.42-.5.11.14.31-.11.45,0,.23-.42.54.05.8.09.05.21.28.45.07.66Z" style="fill:#fff9c1;"/><path d="M181,42.45s.05.03.03.07c-.12.09-.43-.02-.36.26l-.17.16-.04-.03-.17.17-.03-.05-.3.3c-.07-.05.02-.1-.09-.17-.02.36-.31.03-.5.14-.07-.24-.31-.07-.45-.17l.04-.03c-.23-.07-.09-.44-.28-.35-.16-.12-.02-.21-.21-.33.09-.12-.28-.31.04-.42l-.04-.04c.28-.07-.17-.42.16-.54v-.14s0-.02,0-.03l-2.99-.2v11.16c0,2.46,1.3,4.63,4.63,4.63h3.41s0-.06.03-.09c-.21-.09.03-.19.03-.3l-.12-.03c.1-.14.1-.4.33-.42l-.03-.05c.05-.1.12-.17.19-.21l-2.24-2.38c-.36-.36-.65-.8-.65-1.3v-6.53c-.05-.01-.1-.02-.13-.03.11-.17-.07-.41.13-.48v-2.92c-.1.09-.17.27-.21.36ZM178.2,51.7c-.1.1-.19.19-.17.35-.02-.04-.03-.07-.07-.05-.05.03-.05.09-.05.12l-.04-.03c-.21.21-.43.26-.68.33-.36-.02-.42-.36-.62-.63.05-.14-.17-.45-.04-.63l-.03-.04c.19-.24.4-.75.83-.68.03-.07.17,0,.16-.12.52-.17.52.44.75.71-.1.09.07.14-.07.21.14.16.09.28.04.45ZM179.07,49.62l.05.05c-.16.31-.43.54-.75.51-.26,0-.28-.21-.38-.38.19-.33-.21-.38-.03-.66l.16-.21-.03-.05c-.02-.24.35,0,.24-.3.24.05.47-.21.68,0-.14.38.57.28.24.63l.12.14c-.12.1-.17.21-.3.28ZM179.15,48.3l-.21-.05c-.04-.16.02-.5.26-.63.14.04.16.19.21.29-.07.14-.03.38-.26.38ZM179.49,53.34v-.09l.03.05-.03.03ZM179.83,47.5c-.16,0-.35.19-.47,0-.14-.17-.09-.5-.04-.71.05-.28.35-.26.54-.36.16.28.33.82-.03,1.08Z" style="fill:#fff9c1;"/><path d="M182.7,41.45l-.04.03.09.09c-.1.12.14.23-.05.33.02.03.06.04.09.04v-.52h-.13s.02.02.04.03Z" style="fill:#fff9c1;"/><path d="M166.4,39.07c.07.02.16-.02.21-.09.07.1.19.16.33.12l.04-.03c.16.1.24-.02.47,0-.09.33.43.28.45.54l.15.13c.12-.09.25-.15.39,0l.04.06,3.02.2v-5.79c-.09.05-.19.09-.24.17l-.17-.14c-.04.12-.21.12-.33.14-.19.03-.4-.23-.54.03-.14-.14-.07-.24-.21-.38-.09.04-.03.12-.05.17-.12-.1-.17-.26-.37-.3.07-.16-.17-.31,0-.45l-.12-.09.28-.42-.07-.09c.28-.1.42-.45.78-.45.02-.26.31-.05.47-.26.09.04.16.12.28.09l-.04.05c.15,0,.21.12.33.18v-1.41h1.23c2.53,0,4.49,2.39,4.49,5.58v3.74l3.88.26c.05-.05.1-.11.06-.2l.35-.03v-.12c.16-.05.14-.49.42-.42-.05-.16.07-.24.16-.33l-.03-.05c.14-.02.3-.14.45-.03.14.08.16.35.3.38v-2.9c0-.66-.06-1.28-.17-1.88-.06-.03-.11-.09-.13-.15-.04-.08.02-.1.08-.12-.12-.55-.29-1.07-.49-1.56-.15.04-.32.11-.46-.05l-.47-.47c.07-.09-.14-.17-.12-.29,0-.27.08-.52.22-.75-.83-1.25-1.93-2.21-3.09-2.83,2.53-1.59,5.36-4.85,5.36-12.89,0-2.13-.2-3.97-.6-5.56-.03.02-.07.02-.11.02.21-.33-.49-.3-.12-.57-.16-.11-.05-.27-.04-.4-.01-.05-.03-.09-.04-.14-.02-.02-.04-.04-.07-.05.02-.01.03-.02.04-.04-1.52-4.46-4.88-6.51-9.98-6.64.05.12.06.28.23.32.03.11-.05.14-.07.21.03.05.12.1.12.17-.17.07-.02.16,0,.24-.17,0-.19.16-.17.3-.05,0-.11-.02-.12.03v.14h-.12c.02-.05-.02-.07-.05-.09-.04.03-.09.1-.16.09-.02-.07.07-.1.04-.17-.02-.02-.05-.05-.09-.03l-.07.07c.05.03.03.09.03.14-.15.17-.36,0-.54,0,.09-.28-.43-.38-.17-.68-.28-.12,0-.42-.09-.54.12-.05.23-.13.35-.21h-2.55c-.09.1-.2.18-.3.25-.17-.03-.38-.12-.5-.25h-5.33c-.29,0-.43.22-.43.44s.36.43.51.65l2.17,2.1c.51.51.65,1.16.65,2.03v31.73s0,0,0,0c-.05-.37.42-.12.47-.42ZM183.41,15.59c.05.03.03.09.03.12-.05-.02-.03-.07-.03-.12ZM180.7,13.51c.07,0,.1.07.09.12h-.09v-.12ZM180.32,20.89c-.02-.28.3-.07.38-.24.12,0,.23.16.33.07-.11.19.28.23.09.38l.17.09c-.12.24-.09.38-.38.51-.12.03-.28-.09-.45-.05-.16-.24-.26-.56-.14-.75ZM178.92,33.19h-.07v-.07h.07v.07ZM180.61,31.82c.09.1.31.37.04.51-.12-.02-.33-.05-.45-.21.02-.03.05-.05.04-.09l-.07-.09c.17-.1.35.05.45-.12ZM179.07,27.69h.07v.07h-.07v-.07ZM178.24,23.43v-.12c.23-.03.52.03.62.3,0,.21-.12.3-.24.42-.07.07-.19.02-.3.03-.12-.16-.28-.4-.09-.63ZM178.02,9.05c.19.05,0,.23,0,.35-.23.03-.02.17-.21.28.03-.17.03-.4.21-.63ZM177.73,29.41c.31.05.66-.19,1.01.03l.03-.03c.3.33.85.47.63.99-.02.1.05.19.14.21-.19.19-.33.3-.38.54-.23.57-.89.31-1.16.38-.4,0-.49-.4-.75-.54l.16-.09c-.03-.05-.09-.1-.16-.09l-.05.05-.04-.05c.26-.09.02-.31.09-.42-.24-.12.02-.31,0-.45.02-.07.21-.03.21-.17l-.05-.03.21-.21-.04-.05c.04-.07.17.09.16-.07ZM177.28,25.51c-.16.24-.31-.07-.45-.12-.24-.17.14-.28,0-.45.19-.02.23-.14.36-.26.14.17.31.07.42.29-.14.17.02.66-.33.54ZM173.74,3.83c.14-.02.24-.09.33-.21.23.03.47.28.38.56-.05,0-.1-.02-.12.03v.09c-.28,0-.02.21-.17.33-.16-.03-.31-.09-.45-.21-.05-.23-.11-.4.03-.59ZM172.58,6.16c3.55,0,5,2.39,5,9.78,0,8.69-1.45,11.51-5,11.51h-1.09V6.16h1.09ZM171.32,5.76h.24c.02.17.02.35-.16.45-.21.05-.21-.12-.26-.3-.03-.12.07-.16.17-.16ZM168.97,36.28c-.09.02-.19-.04-.24.03-.09-.05-.14-.14-.14-.24.1-.07.16-.24.3-.17.14.12.1.23.09.38ZM169.59,35.95c.16-.02.26-.07.42-.12-.19-.1-.38-.24-.54-.42.02-.42.23-.52.54-.76.23-.04.28.05.42.26.05.04.1.09.09.16-.09.07.09.14.09.21-.02,0-.02.01-.04.02.12.14.2.34.03.45.23.11.38.36.54.54-.21.43.09.85-.26,1.16-.07.07-.23-.03-.16.17-.28-.09-.14.33-.42.24-.12.03-.17-.05-.26-.09-.02.05-.09.07-.07.14-.14-.1-.19-.12-.35-.05-.17-.1-.05-.38-.28-.42-.19-.21-.03-.3-.09-.5-.05-.03-.12-.09-.09-.16l.03-.05c-.19-.07.09-.21.05-.28.07,0,.1-.09.16-.14l-.03-.12.03.05c.07-.11.24-.16.17-.3ZM169.98,7.22c.21-.16.36-.19.59-.12.26.31-.09.73-.47.75-.09-.02-.14-.12-.21-.17l.09-.45ZM169.39,31.5h.07v.05h-.07v-.05ZM168.19,8.29c.03-.12.09-.24.21-.33.28-.09.37.12.5.29.05.16-.1.37-.17.5-.1-.02-.14.21-.24.07-.05.09-.14.1-.21.05-.09-.17-.19-.45-.09-.59ZM167.63,33.16s.05.05.09.03l.09-.07c0-.26.09-.57.36-.68-.05-.1.11-.12.14-.24l.04.04c.21-.09.1-.54.45-.45v-.09c.24.06.45-.07.66-.03.04-.06.09-.1.2-.05.1-.03.17.03.21.12-.01.09.02.23-.04.29.03.06.05.13.07.21-.07.1-.19.23-.33.26.3.04-.03.31-.05.42l-.09.07.05.05c-.1-.02-.09.1-.12.16l.04.05c-.21.19-.61.28-.63.57-.05,0-.1.02-.12-.04-.07.09-.21.12-.17.24.17.16.54.35.33.68-.1.03-.17.17-.33.12-.19-.16-.23-.44-.21-.63-.3.14-.56.1-.78-.12-.1-.24.17-.54.07-.71.03-.07.12-.12.09-.21ZM166.94,9.96l.17.12-.09.14c-.11-.02-.12-.12-.12-.21l.03-.05ZM166.65,10.88c-.1-.07-.16-.17-.12-.3.16-.1.21-.35.45-.3.14.16.09.3.05.47.14.1.38-.05.5.12,0,.45.07,1.08-.47,1.34-.26.14-.47-.07-.57-.26-.1-.15.02-.35.03-.45-.09-.3.33-.33.12-.63Z" style="fill:#fff9c1;"/><path d="M182.55,40.37c.07.14.1.26.14.38h.1s0-.47,0-.47c0,0,0,0,0,0-.05.03-.21-.05-.24.09Z" style="fill:#fff9c1;"/><path d="M194.53,43.02c.11.07.21.14.31.15.05.21.28.45.07.66-.02.21.07.47-.21.54.01.14-.08.2-.17.26v2.96l.17-.09c-.02.09.03.19-.03.24-.06.03-.1,0-.14-.04v3.93c0,.52-.05.95-.2,1.33l.04.05s-.05.03-.08.05c-.02.03-.03.06-.05.09,0,0,0,.01,0,.02l.03.05c-.17.1-.02.26.05.36l.03.05-.21.24c.17.02.14.24.09.33-.05-.12-.19-.04-.24-.12-.09.09,0,.21.04.3h.03v.03c-.2.13-.49-.08-.45.26h0s0,.04,0,.04c0-.01,0-.02,0-.04-.29-.2-.29.42-.59.21-.03.02-.05.1-.12.09l-.03-.05c-.09.24-.28.02-.38.09,0,0,0,0,0,0l-.12.11s0,0,0,.01c0,0,0,0-.01,0l-.66.64c-.14.22-.51.43-.51.65,0,.1.03.2.1.28,0-.04.02-.08.03-.11l.17-.12c.1.06.23.23.24.38h10.75c.29,0,.44-.14.44-.29,0-.29-.29-.51-.51-.8l-2.17-2.1c-.51-.51-.65-1.16-.65-2.03v-6.31c-.07,0-.15-.01-.22,0-.12-.16-.28-.4-.09-.63v-.12c.1-.02.21,0,.31.02v-1.96l-5.07-.34v.71ZM199.04,53.26c-.05-.02-.04-.07-.04-.12.07-.02.12.09.04.12ZM199.29,52.54l-.03.05.03-.09v.03ZM199.37,49.3c.21.24.03.66-.33.68-.28.09-.45-.23-.57-.38,0-.21-.07-.63.28-.66.35-.14.45.17.63.37ZM198.19,46.01s.04-.04.06-.06c.14.17.31.07.42.3-.13.16,0,.6-.28.55-.03.02-.06.04-.09.05,0,0,0,0,0,0-.07.06-.14.02-.21-.04-.06-.05-.12-.11-.19-.13-.01-.01-.02-.03-.03-.05-.02-.02-.03-.04-.03-.05-.05-.12-.04-.27-.06-.35.05-.19.26-.23.43-.21ZM197.75,47.96c.05-.31.85-.24.33-.66.14-.12-.12-.28.12-.33.17.05.54.02.47.33.1.21-.37.38.07.33h.14c-.04.12.1.21.21.26.05.16.05.49,0,.69l-.26.21c-.19-.02-.38.07-.57-.07-.09.03-.23-.12-.3-.14.02-.05-.03-.12.04-.16-.17-.12-.31-.21-.24-.47ZM196.84,47.5c.1-.07.24-.17.36-.09.24.02.36.38.14.5l-.05-.03c-.09.21-.16.02-.3.12-.17-.12-.26-.31-.16-.5ZM196.62,54.51c-.16.09-.44.05-.45-.12.16-.12.28.05.45.03v.09ZM196.24,51.26c.17.17,0,.44-.21.33-.09.02-.14-.14-.16-.24.12-.04.23-.12.36-.09ZM195.42,51.7c.1.05.14-.07.21-.12.26.03.5.07.68.3.03.17-.12.3-.09.5-.07.26-.4,0-.5.24-.16-.04-.21-.28-.42-.24-.24-.24.1-.43.12-.68Z" style="fill:#fff9c1;"/><path d="M185.37,40.67h.03c-.21-.3.05-.61,0-.92.19-.02-.05-.1.09-.17.26-.12.28-.47.63-.57.02.02.05.05.09.03l.03-.12c.03.05.14.05.17,0l.16-.17s-.05-.05-.03-.09c.28-.07.28-.69.66-.45.12.19.1.28.17.5-.23.02-.1.31-.33.3-.21.42.57.78,0,1.16.19.26-.28.23-.17.5-.05.06-.09.12-.13.17h9.37v.8l5.07.34v-1.14h3.77c.29,0,.36-.29.36-.51v-6.01c0-.29-.07-.51-.22-.51-.22,0-.36.22-.51.43l-2.39,2.68c-.22.22-.58.29-1.01.29V7.21l-.05.05c-.14-.3-.45-.16-.68-.42.04-.02.07-.05.05-.09-.17-.02-.24-.1-.33-.21.03-.05.12-.09.12-.16l-.09-.09s.05-.06.08-.1l-3.33-.91-7.82,21.66h.22l-.03.03c.24.12.47.3.75.35-.03.14.4.49.03.75.05.05.02.16.09.21-.05.05-.12.05-.16.12-.14-.35-.63.17-.8-.3-.02-.07-.1-.42-.24-.57.02-.04.05-.05.03-.09-.01-.03-.03-.05-.06-.05l-.95,2.63c.09-.06.19-.11.27-.18.14-.26.33.14.45-.09-.05-.24-.1-.59.21-.75.21.05.26-.5.47-.12.31-.07.23.4.42.57.05.31-.45.49-.38.83-.14.12-.24-.03-.38.12-.15-.03-.17-.13-.2-.21h-.06v-.05h.04c-.03-.06-.08-.1-.19-.1-.12.21-.28.49-.54.57-.08-.04-.2-.04-.28-.11l-2.81,7.78c-.22.65-.51,1.45-.51,1.95,0,.29.22.58.43.58h.56c-.09-.05-.23-.01-.15-.17ZM189.33,26.74v-.09s.05.05.03.09h-.03ZM189.72,26.67h-.07v-.05h.07v.05ZM189.86,26.99c-.05,0-.1.02-.12-.03h.12v.03ZM189.97,26.31h-.07v-.07h.07v.07ZM190,25.93h-.05v-.05h.05v.05ZM188.37,29.49v-.07l.03.03-.03.03ZM188.79,28.79c0-.05-.03-.07-.05-.09h.09s-.02.05-.03.09ZM197.35,38.08l-.14.12c.12.02.16.14.17.24-.19.09.02.17-.09.3-.14-.03-.24.07-.33.17v.12l-.33.04s.02.07.03.09c-.16.09-.31.16-.45.17-.28.16-.71-.1-.96-.26.1-.1-.42-.3-.05-.45-.02-.1-.1-.23-.21-.26.21-.05.24-.37.47-.24l-.14-.12c.17.02.28-.35.47-.47.09.03.14.12.24.09l.12-.16.09.12.17-.21.09.09c.05-.11.16-.09.24-.09,0,.16.19.02.24.12.09.23.61.19.3.54l.05.05ZM196.5,35.91c.1-.07.16-.24.3-.17.14.12.1.23.09.38-.09.02-.19-.04-.24.03-.09-.05-.14-.14-.14-.24ZM204.55,36.66h.05v.07h-.05v-.07ZM203.45,37.97s0,.08-.01.12c.03.12.13.27-.02.37-.19-.12-.03-.23.02-.37,0-.04,0-.08.01-.12ZM202.83,40.17c.37-.21.5.17.77.36-.24.24-.37.23-.63.21-.36-.07-.03-.45-.14-.57ZM201.73,39.69c.21.03.24-.24.45-.09.26.09.4.47.03.63-.19.05-.4-.05-.57-.21.02-.1.12-.19.09-.33ZM201.23,39.4c-.16-.02-.44.03-.42-.21.09-.07-.02-.12-.05-.21.02-.24.31-.19.47-.28.36.09.31.57,0,.69ZM200.33,7.43c-.05-.03-.03-.09-.03-.12.19-.12.31,0,.45.07.07.17-.07.45-.33.35l-.09-.09-.03.03c.05-.05-.14-.19.03-.24ZM199.92,37.73c.1-.4.54.03.68-.42.26.07.71.07.83.47-.28.24-.24.75-.68.75-.03.14-.07.17-.21.21-.12-.16-.19.12-.33.09-.24-.12-.47-.17-.57-.42,0-.28-.1-.5.12-.71.05.02.14-.03.16.04ZM199.41,11.48l.3.12c0,.09-.1.14-.16.21-.12.04-.17-.07-.26-.09l.12-.24ZM198.34,34.74c.05.04.1.09.09.16-.09.07.09.14.09.21-.23.1-.07.26-.21.42.36.02.54.37.75.59-.21.43.09.85-.26,1.16-.07.07-.23-.03-.16.17-.28-.09-.14.33-.42.24-.12.03-.17-.05-.26-.09-.02.05-.09.07-.07.14-.14-.1-.19-.12-.35-.05-.17-.1-.05-.38-.28-.42-.19-.21-.04-.29-.09-.5-.05-.04-.12-.09-.09-.16l.03-.05c-.19-.07.09-.21.05-.28.07,0,.1-.09.16-.14l-.04-.12.04.05c.07-.1.24-.16.17-.29.16-.02.26-.07.42-.12-.19-.1-.38-.24-.54-.42.02-.42.23-.52.54-.76.23-.04.28.05.42.26ZM197.09,25.45c-.05,0-.1-.02-.12.04v.09c-.28,0-.02.21-.17.33-.16-.04-.31-.09-.45-.21-.05-.23-.1-.4.03-.59.14-.02.24-.08.33-.21.23.03.47.28.38.56ZM196.12,17.09v4.05c.07-.06.15-.08.26-.04.05.2-.15.22-.26.34v10.72s.08-.07.1-.13l.03.03c.21-.09.1-.54.45-.45v-.09c.33.09.59-.19.89.09.1.14.17.28.21.45-.07.1-.19.23-.33.26.3.03-.03.31-.05.42l-.09.07.05.05c-.1-.02-.09.11-.12.16l.03.05c-.21.19-.61.28-.62.57-.05,0-.1.02-.12-.04-.07.09-.21.12-.17.24.17.16.54.35.33.68-.1.03-.17.17-.33.12-.19-.16-.23-.44-.21-.63-.02,0-.03,0-.05.02v3.17h-1.45c0,.26-.27,0-.38.19-.1-.17-.3.02-.33-.16l-.03-.03h-.09s-.07.03-.09,0h-3.99c-.36,0-.58-.22-.58-.58,0-.51.22-.94.29-1.23l.54-1.52s0-.02,0-.03c0,0,0,0,0,0l1.36-3.82c-.1-.01-.14.21-.24.07-.05.09-.14.1-.21.05-.09-.17-.19-.45-.09-.59.03-.12.09-.24.21-.33.28-.09.36.12.5.29h0s4.43-12.44,4.43-12.44h.14ZM191.78,25.94h.09v.05s-.05-.02-.09-.05ZM193.24,18.94c.05.03.24-.07.3.09-.02.1.05.24-.09.3-.05-.09-.19,0-.24-.12-.03-.1.09-.16.03-.26ZM192.12,26.15h.05v.07h-.05v-.07ZM192.12,27.25v.16-.16ZM192,20.6h.09v.09h-.09v-.09ZM191.98,25.46v.12-.12ZM191.28,23.1c.23-.02.4.02.56.17.26.35-.11.61-.35.78-.23-.03-.52-.19-.57-.37-.03-.19.07-.56.36-.59ZM190.7,27.37h.07v.07h-.07v-.07ZM190.91,27.61l-.17.05-.04-.05h.21ZM190.63,29.05h-.05v-.05h.05v.05ZM190.52,26.74v.09-.09ZM190.61,27.99v.03h-.09l.09-.03ZM190.19,29.07h.07v.07h-.07v-.07ZM189.9,28.95v.12c-.09-.05-.07-.05,0-.12ZM189.58,31.23l.17.12-.09.14c-.1-.02-.12-.12-.12-.21l.03-.05ZM189.28,32.16c-.1-.07-.16-.17-.12-.3.16-.1.21-.35.45-.3.14.16.09.3.05.47.14.1.38-.05.5.12,0,.45.07,1.08-.47,1.34-.26.14-.47-.07-.57-.26-.1-.15.02-.35.03-.45-.09-.29.33-.33.12-.62ZM185.05,39.4l-.05.05-.04-.05h.09ZM184.79,40.32c-.1.03-.17-.09-.21-.16-.07-.31.16-.38.33-.56.42.19.14.59-.12.71Z" style="fill:#fff9c1;"/><path d="M198.88,5.97c.19.03.36,0,.52-.04l-.04-2.13c0-.36-.23-.65-.66-.64l-1.95.04c-.51.01-.72.31-.92.89l-.43,1.27,3.43.86c.04-.09.06-.19.07-.26Z" style="fill:#fff9c1;"/><path d="M211.43,43.93c-.35.02-.56.12-.8.09-.17-.05-.56-.05-.63-.35l.09-.07c-.13-.05-.17-.16-.21-.27l-3.47-.23v8.54c0,.87-.15,1.52-.65,2.03l-.13.13h.01v.05h-.07l-1.99,1.92c-.14.29-.51.43-.51.65s.15.44.44.44h11.87c.29,0,.44-.22.44-.44s-.29-.43-.51-.65l-2.68-2.1c-.58-.44-.65-1.16-.65-2.03v-8.17l-.29-.02c-.14.16-.32.32-.27.48ZM207.46,53.44h-.07v-.07h.07v.07ZM210.52,51.58c-.14.12-.24-.03-.38.12-.28-.05-.1-.36-.42-.36-.12.21-.28.49-.54.57-.1-.05-.3-.03-.33-.21h.03c-.14-.3.26-.4.47-.57.14-.26.33.14.45-.09-.05-.24-.1-.59.21-.75.21.05.26-.5.47-.12.31-.07.23.4.42.57.05.31-.45.49-.38.83Z" style="fill:#fff9c1;"/><path d="M221.82,11.96s0,.01-.01.02h.04s-.02-.02-.02-.02Z" style="fill:#fff9c1;"/><path d="M208.18,18.37l.04.04.09-.09c.05.07.16.12.16.21l-.04.05c.1.14-.1.4-.33.42-.03,0-.07,0-.1,0v23.44l3.37.23c-.05-.06,0-.12-.02-.19.36.03.16-.38.33-.54l.05.03.07-.09.14.12c.07-.24.26-.16.45-.12-.02.24.3.07.42.17.03.17.35.14.42.33.32.05.17.21.13.41h.22s0-11.21,0-11.21h2.46c2.96,0,5.21-1.17,6.77-3.33-.04-.03-.08-.09-.1-.18-.17-.17-.38-.33-.3-.59l-.09-.09c.09-.02.03-.1.05-.16.05.02.12.05.21.04l.07-.09s-.1-.09-.07-.16c.14-.16.45-.1.49-.26.02.17.33.21.42.14-.02-.03.03-.07.05-.09.07-.01.08.06.09.11,1.33-2.54,1.97-6.05,1.97-10.34,0-1.29-.06-2.47-.16-3.55l-5.99-1.63c.09.87.15,1.88.19,3.03.07-.06.15-.09.22.04.12-.19.26.03.42-.03.14.09-.1.24.14.21.4.17-.19.44.24.62-.21.07-.02.26-.09.38-.03,0,.03.19.17.12-.03.03-.1.05-.09.12l.03.03c-.35-.07-.16.47-.45.38v.21h-.17c0-.05.05-.14-.03-.17l-.12.17c-.07-.02-.16.02-.24.06h0c0,8.04-.94,11.37-3.98,11.37h-1.78c-.02.06-.05.12-.08.15-.23.05-.4-.05-.49-.24-.05-.17.07-.31.21-.38l.04.02v-6.21s0,0,0,0h-.12c.07-.03.02-.12.04-.17l-.16-.12.12-.21c-.07-.12-.28-.12-.21-.3l-.38-.03c0-.17.05-.45.26-.35.03,0,.09.02.12-.04l-.17-.12c.33-.38.03-.85.38-1.16.09-.04.09-.15.13-.25v-1.72c-.11.12-.29.23-.43.17-.38-.1,0-.49-.36-.69.1-.21-.05-.5.12-.68.24.02.48-.33.68-.15v-1.2s-.03,0-.05.01c-.35-.17-.5-.42-.68-.78.31-.14.09-.61.5-.54.02-.16.11-.21.22-.22v-2.91l-3.67-1-.31.38c-.31-.05-.52.23-.81.31-.31.1-.37-.16-.55-.23-.13.03-.05.16-.08.23-.06-.01-.11-.04-.16-.07v8.9c.06,0,.13.02.19.04ZM223.68,17.77c.26-.09.12.24.35.26.02.12-.03.21-.14.28-.21.21-.29-.17-.45-.24,0-.17.04-.29.24-.29ZM220.1,24.86c.23.02.47.1.59.3-.03.1.03.17.12.21-.03.23-.33.28-.42.45-.26.14-.49-.24-.63-.3-.19-.3.14-.5.33-.66ZM216.77,30.58l.09.03c.02.17-.21.21-.29.12-.04-.12.14-.09.21-.16ZM209.05,39.64c-.19.14-.33-.1-.51-.14-.16-.24.04-.43.09-.66l.3-.24c.42.21.83.87.12,1.04ZM208.64,35.52c.05-.09.14-.09.21-.03l-.04.21c-.1,0-.23-.03-.17-.17ZM211.35,34.78c-.21-.23-.42-.07-.63-.29l.03-.04c-.26-.05-.02-.23-.21-.33.12-.21.17-.38.42-.47.16.07.42.09.59.26.03.12.03.4.03.63l-.24.24ZM210.69,27.98v-.09l.03.05-.03.03ZM211.68,33.82c-.07-.19.21-.1.33-.12.05.09.1.17.09.3-.1-.02-.38.05-.42-.17ZM213.11,25.27c-.16.1-.35,0-.47-.09-.07-.12-.05-.24.09-.33.05,0,.11.02.12-.03.09.12.17.21.17.33-.03.09.09.05.09.12ZM212.93,23.43c0,.17.02.38-.17.42-.17-.1-.24-.21-.28-.42l.03-.16c.19.09.38-.14.42.16ZM212.13,18.1c-.02.1.03.23-.03.3-.07-.05-.21-.1-.21-.24.09-.02.17-.16.24-.05ZM212.01,20.36c.07.02.14.05.21.04.02.35.85.5.26.83-.16-.05-.42-.07-.42-.3v-.12s.05-.02.07-.03c.05-.21-.17-.07-.24-.17-.04-.05.03-.19.12-.24ZM211.13,18.11c.07-.17.14-.31.3-.36.19.1.52.3.33.54-.1.05-.24.03-.38.03.02-.05-.05-.09-.07-.12h-.09l.03-.03c-.02-.05-.07-.05-.12-.05ZM210.59,13.4c.1-.07.16-.21.04-.24l.42-.42c.05.1.14-.05.17-.05.17.26.5-.02.57.33.05.28-.04.66-.24.83-.09.03-.14.12-.24.09-.1-.19-.21.07-.35.05l-.03-.26-.17.05c.02-.19-.26-.14-.16-.38ZM210.55,20.51c.14.07.26-.16.33.05l.14-.17c.09.05.24.24.33.09.19.1.31.35.33.5.45.03.23.54.45.71-.12.09-.09.3-.03.42-.19.47-.71.59-1.13.69l-.09-.07-.07.07-.35-.28c-.21.17-.16-.23-.36-.17-.05-.07-.05-.15-.12-.21-.23.21.28.31,0,.5.1.3-.31.52-.42.75-.31.1-.57.23-.83-.09-.33-.28-.1-.62-.05-.92.3-.02.35-.54.8-.42.03.17.21.03.3.14.02-.21.1.07.15-.05-.28-.21.19-.42-.09-.63.12-.12.12-.14.26-.24-.19-.07,0-.21,0-.3.05-.16.36-.19.45-.38ZM209.97,18.91c.23.24.16.57-.21.57-.12.07-.31-.07-.38-.21.05-.03.05-.12.12-.16l-.07-.09c.1-.19.38-.15.54-.12ZM209.29,18.7c.23.14-.03.4-.21.36l-.28-.04c.07-.29.23-.38.49-.33ZM208.88,20.6c-.03.26.19.21.33.33-.07.24-.33.26-.49.38,0-.16-.31-.05-.35-.3-.07-.05-.09-.12-.07-.21.19-.07.35-.21.57-.21Z" style="fill:#fff9c1;"/><path d="M213.56,16.77v-.1l-.1.06s.06.04.1.04Z" style="fill:#fff9c1;"/><path d="M205.94,6.49c-.02.08.1.13.13.18.49-.25.66.43,1.07.03.13.21-.04.42.32.31l.05-.05c.03.42.69.4.64.66.08.23.4.28.27.52.16.1.24.23.19.41-.16.06-.26-.15-.37,0l.02.04.33.08c.02-.15.08-.31.1-.44.3-.02.34-.55.79-.43.04.17.21.03.3.13.01-.21.1.07.15-.06-.28-.2.18-.42-.1-.62.12-.12.12-.14.26-.25-.19-.07,0-.21,0-.3.05-.16.36-.2.44-.39.14.07.26-.16.33.05l.14-.18c.09.05.25.24.33.08.19.1.32.34.34.5.05,0,.09.01.12.03v-.27s2.09-.04,2.09-.04c2.11-.04,3.23,1.09,3.78,4.46l3.8.95c-.2-.13,0-.32-.2-.46,0-.16.06-.26.04-.42l.03.03c.16-.07.22-.21.29-.34.24-.09.45-.11.66-.05,0,.36.31-.06.42.23h.21c.16.1-.12.24.09.32-.5.22.13.59-.37.75l-.04-.03c.04.26-.11.17-.24.17l1.32.33c-.19-1.33-.45-2.49-.79-3.5-.18.18-.35.34-.65.31-.33.27-.75-.11-1.05-.28l-.18-.2c.1-.25-.14.04-.18-.21.05-.04.05-.09.05-.12l-.21-.17c.15-.11-.06-.23.11-.33l-.09-.09.12-.12c-.19-.12.03-.3-.04-.42.04,0,.06,0,.07-.03-.11-.03-.19-.08-.26-.19.05-.23-.23-.21-.3-.36.06-.21-.2-.48-.1-.71.25.1.63.13.76.44l-.03.05c.02.13.13.14.22.19,0,0,.01-.01.02-.02.03-.05.12-.09.12-.18l-.05-.03c.1.03.19-.04.21-.13.06-.05.15-.04.24-.03-1.75-2.67-4.36-3.54-7.5-3.47l-10.93.22c-.29,0-.43.23-.43.44,0,.22.37.43.52.64l2.21,2.06c.09.09.17.18.24.28.05,0,.1,0,.14,0ZM208.73,7.15c0-.16-.31-.05-.35-.29-.07-.05-.09-.12-.07-.21.19-.07.34-.22.57-.22-.03.26.2.21.34.32-.06.25-.32.27-.48.39ZM209.92,4.71c.23.24.17.57-.2.58-.12.07-.31-.06-.39-.2.05-.04.05-.12.12-.16l-.07-.09c.1-.19.38-.16.54-.13ZM209.24,4.52c.23.13-.02.4-.2.37l-.28-.03c.06-.3.22-.39.48-.34ZM207.36,4.35c.15-.16.5-.24.76-.14l.03.03.09-.09c.05.07.16.12.16.21l-.03.05c.11.14-.1.4-.32.42-.22.06-.51-.08-.63-.25.03-.11-.09-.14-.06-.24ZM205.4,4.46c-.19-.06-.52-.04-.51-.34v-.49c.25.03-.05-.21.14-.27.12.03.25.19.14.29-.05.14.11.1.16.17.02.21.36.43.06.62Z" style="fill:#fff9c1;"/><path d="M211,8.59l-.09-.07-.07.07-.35-.27c-.21.18-.16-.22-.37-.17-.05-.07-.06-.15-.12-.21-.22.21.28.31,0,.5.07.19-.08.35-.22.51l2.06.52-.02-1.23c-.24.19-.56.27-.83.34Z" style="fill:#fff9c1;"/><path d="M237.58,56.47s-.07.02-.09.03c-.05-.14-.19-.21-.29-.28.02-.19-.04-.48,0-.71l-.24.24c-.14.22-.51.43-.51.65s.14.44.43.44h.81c.1-.16.17-.33-.12-.37Z" style="fill:#fff9c1;"/><path d="M232.24,7.69c-.02-.87.11-1.52.61-2.04l2.13-2.14c.14-.22.5-.44.49-.66,0-.22-.15-.43-.44-.43l-11.37.23c-.29,0-.43.23-.42.44,0,.22.37.43.52.64l2.21,2.06c.52.5.68,1.15.69,2.01l.11,5.41,5.6,1.4-.14-6.93ZM227.83,4.22c-.1,0-.17.04-.24.13-.17-.05-.54-.18-.34-.46.05-.23.32-.25.5-.17.21.08.13.35.08.5ZM231.4,13.05c-.19-.12-.04-.23.02-.37-.01-.04-.01-.08,0-.12.01.04,0,.08,0,.12.03.12.14.26-.02.37Z" style="fill:#fff9c1;"/><path d="M239.79,51.63c0,.87-.14,1.52-.65,2.03l-1.71,1.65c.13-.09.26-.29.4-.09l.09-.12c.19.1.54.07.75.24l.09-.09.21.17c.07-.12.21-.14.33-.12.03.36.59.42.42.78l.09.09c-.07-.02-.09.07-.12.09.02.02.04.05.07.03.03.33-.34.37-.42.55h1.81c-.11-.06-.19-.14-.18-.29-.09-.45-.17-.85-.03-1.25.12.12.21.07.33.09l-.09-.17c.1-.12.31-.07.3-.3l.09.09c.05-.09.14-.12.24-.12l.04.04c.21-.12.54-.1.71-.16-.02.04-.09.05-.09.12.03.05.09.04.14.04.05-.02.03-.07.03-.12.17.03.17.23.38.21.07.04.17.33.33.17.23.1.03.23.16.37l-.16.12.24.17c-.05-.02-.09.05-.12.09.26.05.02.23.21.33l-.17.03c.35.14-.3.45,0,.5-.03.01-.06.03-.09.04h4.86c.29,0,.44-.22.44-.44s-.36-.43-.51-.65l-2.17-2.1c-.51-.51-.65-1.16-.65-2.03v-5.95l-5.58-.37v6.32ZM245.08,46.76s.09.03.07.09h-.07v-.09ZM243.99,54.8c.07.14-.09.16-.16.21l-.17-.17c.14-.09.19-.1.33-.03ZM242.65,52.01l.21.09c-.1,0-.12.38-.28.12-.04-.09.05-.14.07-.21ZM242.32,50.22c.02.33-.31.1-.45.3.05-.14.24-.33.45-.3Z" style="fill:#fff9c1;"/><path d="M226.82,51.63c0,.87-.14,1.52-.65,2.03l-2.17,2.1c-.15.22-.51.43-.51.65s.14.44.43.44h8.77s.03-.03.03-.04c0,.02,0,.03,0,.04h2.56c.29,0,.44-.22.44-.44s-.36-.43-.51-.65l-2.17-2.1c-.28-.28-.45-.62-.55-1.01-.05.05-.1.11-.14.19l-.05-.03.18-.22c-.06-.29-.09-.6-.09-.96v-6.81l-5.58-.37v7.18ZM229.96,56.72c-.05-.03-.05-.09-.05-.14.07,0,.12.1.05.14ZM227.07,45.59l.15-.09-.07-.12c.26-.19.61-.51.99-.38-.07.26.26.17.33.26l.35.36c.05.47-.14.82-.38,1.22l-.24.07s0-.09-.05-.12c-.16.23-.45.07-.71.17,0-.4-.52-.44-.42-.83-.05-.19.07-.37.05-.54Z" style="fill:#fff9c1;"/><path d="M240.43,15.16c-.02.36.44.09.61.24.06.25.51.19.62.47.66.09-.04.51.27.96v.18s3.47.87,3.47.87l-.03-1.72s-.04.01-.06.03c-.21-.03-.21-.22-.3-.36-.27.21-.55-.35-.75.09-.21.04-.21-.1-.27-.24-.02-.07.07-.09.08-.12.03-.02.05.02.09.03.05-.02.03-.07.03-.12l-.25-.17c.21-.13-.18-.33.11-.42,0-.14-.18-.2-.13-.36.05,0,.1,0,.12-.06.02-.05-.05-.07-.09-.12.19-.07.27-.5.58-.43-.04-.11-.13-.22,0-.32l-.12-.08.27-.42-.07-.09c.25-.1.39-.4.68-.45l-.1-5.12c-.02-.87.11-1.52.61-2.04l2.13-2.14c.14-.22.5-.44.49-.66,0-.22-.15-.43-.44-.43l-11.37.23c-.29,0-.43.23-.42.44,0,.22.37.43.52.64l2.21,2.05c.52.5.68,1.15.69,2.01l.16,7.78c.1-.33.37-.22.65-.17ZM244.2,11.05c.13-.19.22-.06.38.03.16.19-.13.33-.16.46-.07-.21-.39-.24-.22-.48ZM241.99,10.89c.17-.26.3-.53.62-.4l.09.09c.19-.27.32.13.51.11-.14.16.07.24.04.38l-.04-.05c-.1.14.14.17,0,.33l-.17.14.04.04c-.16.02-.32.34-.53.22l-.09-.09-.03.05c-.09-.15-.16-.27-.33-.25.02-.05.01-.12.08-.16-.21-.03-.27-.26-.18-.41ZM241.76,12.48c.08-.14.21-.14.35-.15.24.1.06.35,0,.47-.11-.14-.45-.04-.35-.32Z" style="fill:#fff9c1;"/><path d="M228.44,21.53l.09-.09.12.12.03-.04c.04.09.13.07.18.04t0,0l.03-.04s-.02.03-.03.04c.19.1.24.29.45.33.06-.11-.13-.25.09-.29.17.05.54.02.47.33.1.21-.36.38.07.33h.14c-.03.12.1.21.21.26.05.16.05.49,0,.7l-.26.21c-.16-.01-.32.04-.48-.03.12.17.13.43-.06.6-.02.03.02.05.03.07-.1.26-.49.05-.63.35-.05-.05-.09-.14-.16-.14.05.09-.09.36-.21.26l.12.12c-.09,0-.17.03-.24.07v15.22c.07,0,.14,0,.21-.04l-.05-.03c.17-.07.12.12.26.17.05-.14.19-.07.28-.09l.09.16.09-.12c.33.28.99.61.87,1.1.05.09.21.09.17.21-.07-.02-.09.05-.12.07.02.05.07.05.12.05v.12c-.09-.11-.17.03-.24.03l.12.14-.09.07.17.21c-.26.17.02.42-.14.56-.35-.03-.31.56-.66.42-.16.09-.35.31-.59.28.05.16.43.21.29.42.08.03.15.1.12.19l4.67.31v-4.78s-.05-.04-.08-.05l-.03-.47c.06.02.08-.04.12-.07h0s-.03-.1-.03-.14c.01,0,.02,0,.03.01v-7.52h7.39v13.51l5.58.37v-19.98s-.01.02-.03.02c-.14.02-.19-.14-.3-.21.05-.13.21-.18.32-.12v-5.84l-3.79-1.03c-.15.17-.28.35-.22.52-.51.03-.81.18-1.17.13-.1-.03-.25-.05-.4-.09v8.89h-7.39v-11.94l-.82-.22s.03.02.04.03c-.24.24-.36.23-.63.21-.27-.05-.16-.27-.13-.44l-4.05-1.1v7.65s.02.02.03.03ZM244.4,33.75h-.07v-.05h.07v.05ZM245,27.77c.28-.12.36.21.42.38-.07-.02-.09.05-.14.07v.14c-.17.05-.26-.14-.4-.21-.04-.16.02-.28.12-.38ZM242.86,30.58c-.21-.16.03-.33.17-.38-.05-.02-.07-.1-.12-.09.05-.29.36-.31.49-.54l-.03-.04c.23-.28.52-.03.8-.05l.12.14.04-.05c.1.19.47.31.47.62l.15.3c.09-.03.04-.14.05-.21.02.05.07.03.12.03l.09-.07.03.04c.12-.16.33-.28.54-.3l.21.17c.1-.12.3.03.42.12.35.12.02.43.3.54-.07.19,0,.12-.17.26l.09.07c-.09.31-.5.4-.57.59-.24-.14-.77.14-.8-.24-.12-.16-.21-.16-.3-.3.16-.17-.1-.17-.12-.33-.28.1-.05.36-.29.49-.45.09-.9.4-1.29,0-.3.07-.24-.24-.42-.36.03-.12.05-.35-.12-.38.05-.02.12.03.16-.03ZM242.57,35.62s-.02.05-.04.09h-.09l.12-.09ZM232.58,26.85h.07c0,.06-.05.11-.07.17v.13s-.01-.09,0-.13v-.17ZM230.23,27.9c-.05-.02-.03-.07-.03-.12.07-.02.12.09.03.12ZM230.23,24.61c-.28.09-.45-.23-.57-.38,0-.21-.07-.63.28-.66.35-.14.45.17.63.37.21.24.03.66-.33.68ZM229.52,20.68c.12.21.35.66-.03.8-.19.07-.28-.12-.42-.17-.12-.12-.1-.35-.12-.45.07-.24.38-.24.57-.17Z" style="fill:#fff9c1;"/><path d="M227.86,21.99l-.08.08c.06.07.15.08.23.09-.02-.04-.06-.1-.15-.17Z" style="fill:#fff9c1;"/><path d="M256.73,20.21c-.06-.19.06-.37.04-.54l.15-.09-.07-.12c.13-.1.29-.23.46-.33l-.13-6.22s-.04,0-.06,0l-.14.12c-.23-.13-.58-.34-.59-.7.26-.2.48-.39.76-.39l-.03-1.72c-.07-3.47.09-6.16.06-7.9,0-.14-.15-.36-.37-.36l-.87.02c-.29,0-.43.23-.64.52-1.06,1.47-3.84,3.63-6.71,4.63-.43.15-.72.38-.71.59,0,.22.15.36.37.5l2.69,1.42s.06-.08.11-.09c-.02-.12-.11-.19-.21-.2-.08-.26.13-.51.23-.72l.09.09c.05-.07.17-.11.12-.21l-.04-.05c.1-.24.29-.18.44-.37.15-.07.33.13.38-.06.14.21.47.13.72.16.02.14.28.22.37.24-.2.28.3.24.22.5-.04-.02-.05.02-.07.05l.25.12c-.07-.02-.09.05-.12.09-.03.19-.1.4.05.63-.02-.05-.07-.05-.12-.05.06.23-.27.3-.44.39.05.02.25.12.13.21-.16-.12-.4-.17-.5.01.03,0-.59-.04-.24.21l-.14-.08-.07.12s-.02-.01-.04-.02c.02.07.03.15.03.23l.18,8.75,4.82,1.21c-.15-.19-.42-.28-.35-.58ZM253.29,17.92h-.07s0-.05,0-.05h.07s0,.05,0,.05ZM253.29,13.03c-.09-.03-.04-.14-.06-.21l.21.05c-.03.05-.07.16-.15.16ZM253.97,7.85c0-.19.16-.56.33-.68.02.28-.18.47-.33.68ZM255.92,13.1l-.25-.12c-.09.04-.03.1-.05.17-.17,0-.47.03-.63-.16-.14-.22.08-.45.11-.63-.03.02.19-.04.29-.09.27.19.52.13.69.46,0,.14,0,.33-.17.37Z" style="fill:#fff9c1;"/><path d="M252.17,46.16v5.47c0,.87-.14,1.52-.65,2.03l-2.17,2.1c-.22.22-.51.43-.51.65s.14.44.43.44h10.86c.36,0,.43-.22.43-.44s-.29-.43-.51-.65l-2.17-2.1c-.51-.51-.65-1.16-.65-2.03v-5.16l-4.62-.31c-.59-.03.4.06-.44,0ZM253.84,49.59c.09.1.44.1.24.33l.12.05c-.03.12-.17.17-.29.21l.14-.17c-.17-.07-.24-.23-.21-.42ZM252.87,46.79v.17c.14.02.26-.07.38.09-.07.16-.02.38-.24.42l-.21-.17c-.04.21-.31.12-.42.09.12-.19-.12-.47.21-.5-.05-.1.1-.12.16-.17.07,0,.09.07.12.09Z" style="fill:#fff9c1;"/><path d="M254.04,23.69c.28.19.68.44.71.83-.07.07-.28.24-.09.3.03.14,0,.38-.21.48-.07.02-.19-.03-.24.05.07.09.14.24.09.33h-.12s-.03-.05-.05-.09c-.16,0,0,.14-.09.17-.06-.09-.18,0-.29.01v7.16c.27.06.52.27.7.46-.12.19.26.28,0,.42.02.12-.04.28.05.38-.44.1-.12.73-.63.69,0,.06-.06.1-.13.13v10.43l5.07.34v-7.45c-.14-.04-.27-.09-.28-.27.03.02.05-.02.09-.03-.22-.11.03-.19-.01-.3-.03-.02-.05-.05-.08-.08.05.03.06.05.08.08.03.02.06.03.1,0l.03-.03c-.19-.16-.04-.22.07-.3v-15.32l-2.17-.59c.08.25.37-.04.37.29-.07-.02-.09.05-.12.09l.16.03-.12.12c.05.03.03.09.03.12-.21.1,0,.21-.12.35-.21.3-.54.28-.87.16-.12-.09-.19-.28-.38-.21-.35-.38-.63-.78-.5-1.34.03,0,.06,0,.09-.01l-1.42-.39v2.9c.1,0,.22,0,.29.05ZM254.09,36.96c-.14.03-.26-.05-.3-.17-.05-.1.09-.1.12-.16.12.02.24.07.26.21.02.05-.07.09-.09.12ZM254.6,39.57h-.09v-.09h.12c.02.05-.02.07-.03.09ZM257.04,34.91v.09c-.03.09-.12-.02-.16-.03l.16-.05ZM256.71,41.63c.19-.02-.05-.1.09-.17.26-.12.28-.47.63-.57.02.02.05.05.09.03l.04-.12c.03.05.14.05.17,0l.16-.17s-.05-.05-.03-.09c.28-.07.28-.69.66-.45.12.19.1.28.17.5-.23.02-.1.31-.33.3-.21.42.57.78,0,1.16.19.26-.28.23-.17.5-.19.26-.29.42-.54.57-.02-.03.02-.05.04-.09l-.09-.07c-.05.19-.33.1-.45.12l-.12-.05.03-.04-.21-.09c.05-.02.05-.07.05-.12-.05-.16-.31-.03-.21-.24h.03c-.21-.3.05-.61,0-.92ZM256.62,44.38c.1.05.19-.12.21.05-.12.26.1.57-.21.75-.14.02-.3-.02-.33-.17-.02-.26.16-.47.33-.63ZM255.7,38.45c.16.12.33.26.3.42.38.21-.17.31-.3.38-.47.17-.49-.24-.57-.54.05-.29.33-.26.57-.26ZM255.01,26.03h.16s-.02.05-.03.09c-.05,0-.1.02-.12-.03v-.05Z" style="fill:#fff9c1;"/><path d="M267.98,21.69c-.14,0-.24-.04-.26-.2-.13-.15-.21-.15-.3-.29.15-.18-.11-.17-.13-.33-.28.11-.04.37-.28.49-.41.09-.81.35-1.17.12-.04.03-.1.05-.14.05,0,.09-.03.15-.06.21.29.15.06.62-.18.52l-.12-.16s-.06.09-.08.16c-.4.15-.63-.07-.92-.07,0-.15-.35-.13-.18-.33l-.21-.03c-.02-.16.12-.28.08-.42l-.29.28c-.09-.17-.23,0-.33,0-.18-.19-.61-.08-.63-.41.04.02.05-.02.09-.03-.22-.11.03-.2-.02-.31-.03-.02-.05-.05-.08-.07.05.03.07.05.08.07.03.02.06.03.1,0l.03-.03c-.32-.26.31-.27.11-.51.03-.04.1-.07.08-.12l-.04-.05c.11.05.14-.07.21-.13.02-.04-.04-.05-.05-.07.24-.07.5-.08.75.02.18.13.32.41.6.23.19-.21.38-.22.62-.22.05.07.11.13.16.2.03-.02.06-.03.08-.04-.05-.02-.07-.1-.12-.08.05-.3.36-.32.48-.55l-.04-.03c.22-.28.52-.04.8-.07l.12.14.03-.05c.11.19.48.3.48.61l.16.29c.09-.04.03-.14.05-.21.02.05.07.03.12.03l.09-.07.04.03c.07-.09.17-.17.28-.23,0-1.28.02-2.47.05-3.57-.16-.16-.2-.41-.19-.59-.29.14-.55.12-.78-.11-.11-.24.16-.54.06-.71.03-.07.12-.12.08-.21.03.02.05.05.09.03l.09-.07c0-.26.07-.56.34-.68-.02,0-.04,0-.06-.02-.11-.26-.11-.42.02-.66.14-.26.32-.04.49-.06.35-5.44,1.26-8.03,3.17-8.1-.09-.03-.17-.07-.26-.16-.29.08-.25-.24-.42-.35.03-.12.05-.35-.13-.38.05-.02.12.03.16-.04-.21-.15.03-.33.17-.39-.05-.02-.07-.1-.12-.08.05-.3.36-.32.48-.55l-.04-.03c.22-.28.52-.05.8-.07l.12.14.03-.05c.11.19.48.3.48.62l.16.29c.09-.04.03-.14.05-.21.02.05.07.03.12.03l.09-.07.03.03c.12-.16.32-.28.53-.31l.21.17c.1-.13.3.03.42.11.35.11.03.43.31.53-.07.19,0,.12-.17.27l.09.07c-.08.31-.49.41-.56.6-.25-.13-.76.15-.8-.23-.12-.15-.21-.15-.3-.29.15-.18-.11-.17-.13-.33-.28.11-.04.36-.28.49-.23.05-.45.15-.67.19,1.79.21,3.23,2.47,4.35,5.42.06,0,.12.04.18.12.01.13,0,.2-.05.25.99,2.74,1.7,6.01,2.16,8.76.08.43.23.79.6.78.29,0,.43-.3.42-.66l-.21-10.31c-.07.05-.14.09-.22.12-.21.07-.25-.1-.37-.15-.09.02-.03.1-.05.16-.26-.05-.41-.51-.66-.2-.42-.1-.65-.19-.84-.52.05-.24-.15-.43.08-.59l-.09-.07c.15-.06.26-.25.45-.3-.09-.1-.14-.12-.13-.21.23-.02.2-.33.5-.27-.02.07.06.09.09.14l.15-.18-.09-.09c.05-.07.14-.02.21-.04-.02.05.07.09.09.12.33-.16.44.29.71.02.08.12,0,.24.14.22l-.1-5.09c-.02-.72-.1-1.23-.53-1.22-.36,0-.93.6-1.35,1.11-.49.59-1,.89-1.36.9-.36,0-.8-.06-1.24-.41-1.1-.85-2.35-1.47-3.51-1.45-5.35.11-7.54,6.02-8.4,12.68.21.1.13.44.1.55.17.05.04.19.06.28-.17.14-.16.44-.28.63.07.07.21.05.21.17-.05.09-.07.19-.17.25-.06.02-.09,0-.12,0-.18,1.96-.27,3.94-.3,5.82l5.9,1.48c0-.63-.01-1.24-.01-1.83ZM278.16,3.21h.07s0,.07,0,.07h-.07s0-.07,0-.07ZM276.38,5.51c.02-.07.21-.04.2-.18l-.05-.03.2-.21-.03-.05c.03-.07.18.08.15-.07.31.05.66-.21,1.01.01l.03-.04c.3.32.86.45.65.98-.02.1.06.19.14.21-.19.19-.32.3-.37.55-.21.58-.88.33-1.15.41-.4,0-.49-.39-.76-.52l.15-.09c-.04-.05-.09-.1-.16-.09l-.05.05-.03-.05c.26-.09,0-.31.08-.42-.25-.12.01-.31,0-.45ZM267.86,6.95c.14-.02.24-.09.32-.21.21.03.43.23.4.47h.04v.05s-.05,0-.05,0c0,0,0,.01,0,.02-.05,0-.1-.02-.12.04v.09c-.28,0-.01.21-.17.33-.16-.03-.31-.08-.46-.2-.06-.23-.11-.4.02-.59ZM266.23,16.36c-.17.06-.16-.05-.21-.15l.28.03c.02.07-.05.09-.07.12ZM266.32,14.9c-.29.18-.45-.1-.63-.23.08-.23.1-.33.2-.54l.33-.06c-.05-.02-.03-.07-.04-.12.31-.06.65-.22.87.07,0,.44-.4.7-.73.88ZM265.46,5.93c.33-.14.63-.57,1-.35.33-.06.18.38.46.44.04.1-.05.14-.06.21.04.05.12.1.12.17-.17.07-.01.16,0,.24-.17,0-.19.16-.17.3-.05,0-.1-.02-.12.04v.14s-.12,0-.12,0c.02-.05-.02-.07-.05-.09-.03.03-.08.1-.15.09-.02-.07.07-.11.03-.17-.02-.02-.05-.05-.09-.03l-.07.07c.05.03.04.09.04.14-.15.18-.36,0-.54.01.08-.28-.44-.37-.19-.68-.28-.12,0-.42-.1-.54ZM265.48,8.93h.24c.02.17.02.34-.15.45-.21.06-.21-.12-.27-.29-.04-.12.07-.16.17-.16ZM264.75,15.49c-.19-.08-.34-.31-.22-.5.15-.32.41-.18.69-.27.34.39-.21.66-.47.77ZM264.18,10.42c.2-.16.36-.2.59-.13.27.31-.07.73-.45.76-.09-.02-.14-.12-.21-.17l.08-.45ZM265.95,22.63c-.11-.17-.14.16-.24,0,.14-.16.27-.49.53-.39.06.23-.2.21-.29.39Z" style="fill:#fff9c1;"/><path d="M280.32,38.67c-.36,0-.58.22-.58.58,0,.11-.04.57-.13,1.25.05.04.06.09-.02.19l.12.05c-.02.08-.08.12-.16.16-.21,1.55-.61,3.94-1.24,6.21l2.08.14c.31-2.3.43-4.96.43-7.93,0-.43-.15-.65-.51-.65Z" style="fill:#fff9c1;"/><path d="M263.48,31.78c.18-.09.37-.16.45-.34.1.47-.38.64-.33,1.04.38-.02-.07.38.24.42.07.42-.05.73-.24,1.13l.03.04s-.06.03-.09.06c.04,1.12.09,2.25.17,3.37.09,0,.08.06.12.12l-.11.05c.19,2.92.52,5.8,1.04,8.41h.03c0,.05.02.1.05.14l1.42.1c-.04-.1.05-.25-.2-.17.02-.17.1-.31-.05-.42.02-.09.16-.17.05-.24.17-.12.12-.45.42-.5.1.14.31-.1.45,0,.23-.42.54.05.8.09.04.16.18.34.15.51.06,0,.12-.02.16-.03-.02.03-.09.05-.09.12.03.05.09.03.14.03.05-.02.04-.07.04-.12.17.03.17.23.38.21.07.03.17.33.33.17.23.1.03.23.16.36l-.16.12.06.05,1.27.08c-.52-3.74-.78-9.48-.78-18.25,0-1.16,0-2.26.01-3.32l-5.88-1.6c-.05,1.75-.06,3.41-.06,4.85,0,1.14,0,2.33.03,3.54ZM269.5,45.57c.07.14-.09.16-.16.21l-.17-.17c.14-.09.19-.1.33-.03ZM268.16,42.78l.21.08c-.1,0-.12.38-.28.12-.03-.09.05-.14.07-.21ZM267.83,40.98c.02.33-.31.11-.45.3.05-.14.24-.33.45-.3ZM266.49,26.39s-.02.05-.04.09h-.09l.12-.09ZM265.5,44.38l.09-.12.3.17c-.28.26-.71.35-1.04.24.23-.1.38-.33.66-.3ZM264.62,24.15h.07v.05h-.07v-.05ZM263.93,27.03c-.12.19-.26.26-.36.45l-.05-.03.38-.47.03.05Z" style="fill:#fff9c1;"/><path d="M268.05,15.72s0-.06,0-.1c-.02.02-.02.05-.01.09,0,0,0,0,0,0Z" style="fill:#fff9c1;"/><path d="M277.38,47.59l-.27-.02c-.18-.01-.35-.02-.5-.03-.88,3.01-2.17,5.69-3.96,5.69s-3.18-1.05-3.97-5.99l-1.18-.08c.05.15-.34.37-.09.42-.16.07-.42.19-.49.42-.14.08-.35.07-.38.26-.31-.54-.69.35-.92-.21h-.12s.02-.07.03-.09c-.17-.31-.69-.28-.66-.63-.02-.12-.04-.24-.06-.35l-1.15-.08.04.05c-.07-.02-.09.07-.12.09.02.02.03.05.07.04.02.17-.08.26-.18.34,1.31,5.47,3.65,9.44,7.8,9.44,4.51,0,6.62-3.41,7.48-9.21-.1,0-.19-.01-.29-.02l-1.08-.03ZM265.17,50.01c-.24-.09-.23-.31-.16-.45.09.02.12-.17.21-.05.09-.21.19.04.3.05.1.28-.19.35-.35.45ZM265.97,49.63c-.1.05-.14-.07-.21-.12l.24-.12c-.02.09.03.19-.03.24ZM267.52,54.27c-.07.26-.4,0-.5.24-.16-.04-.21-.28-.42-.24-.24-.24.1-.44.12-.68.1.05.14-.07.21-.12.26.03.5.07.68.3.03.17-.12.3-.09.5ZM268.65,49.8l-.05-.03c-.09.21-.16.02-.3.12-.17-.12-.26-.31-.16-.51.1-.07.24-.17.36-.09.24.02.36.38.14.5ZM270.42,54.29c-.05-.03-.04-.09-.04-.14l.12.09s-.05.07-.09.05ZM270.59,54.42l-.04.05.04-.09v.03Z" style="fill:#fff9c1;"/><path d="M283.14,31.21c.58,0,1.01-.65,1.38-1.16.05-.07.1-.14.15-.22-.02-.03-.04-.06-.06-.09-.05-.17.07-.31.21-.38l.15.05c.04-.05.08-.1.11-.16l-2.5-.68-.09,1.76c0,.58.15.87.65.87Z" style="fill:#fff9c1;"/><path d="M293.15,28.32c-.12-.06-.24-.15-.35-.24.03.11.06.22.09.33.08-.02.16-.05.26-.09Z" style="fill:#fff9c1;"/><path d="M291.31,48.74c-.69,3.3-1.85,4.48-3.52,4.48s-3.18-2.48-4.2-5.14c-.63-.07-1.18-.14-1.95-.22.88,4.79,3.14,8.98,6.95,8.98s6.35-2.86,7.64-7.79c-.87-.06-1.5-.13-2.69-.2-.48,0-1.31-.05-2.24-.11ZM284.23,54.24c-.16-.12-.21-.19-.21-.36.23-.07.44-.49.69-.21l.17.24c-.19.1-.35.47-.66.33Z" style="fill:#fff9c1;"/><path d="M291.32,23.71s-.02,0-.02,0c0,0,.01,0,.02,0,0,0,0,0,0-.02Z" style="fill:#fff9c1;"/><path d="M293.52,30.36s-.05,0-.08-.01c-.08.02-.14,0-.19-.05,0,.06.02.12.02.19.08-.05.16-.09.24-.13Z" style="fill:#fff9c1;"/><path d="M288.55,23.85c.38,0,.73.07,1.04.22.05-.16.14-.31.31-.38-.05-.1.1-.12.13-.25l.03.03c.21-.09.09-.54.44-.46v-.09c.33.08.58-.2.89.07.08.1.13.21.17.33.05-.12.12-.23.25-.29.33.05.5-.29.88-.07-.17.16.14.19.1.34.14.23,0,.49.17.66-.15.11.06.21-.08.33l-.27.3.04.03c-.05-.02-.24.07-.3-.06-.06.26-.33.14-.53.29-.14.09-.26-.17-.42-.2-.01-.13-.15-.26-.21-.4-.07.01-.06.11-.09.15l.04.05c-.17.16-.46.26-.57.45.29.38.53.86.75,1.45.08-.21.25-.32.48-.5.22-.04.28.05.42.25.05.03.1.08.09.15-.09.07.09.14.09.21-.22.11-.06.26-.2.42.32,0,.49.27.67.48.08-.08.19-.09.4.07-.13-.81.92-.29,1.02-.94.15.04.34-.05.46-.2.16.23.43.34.74.25l.07-.08c.26.16.43.06.69,0-1.46-3.92-3.81-6.33-6.6-6.27-1.32.03-2.32.55-3.16,1.18,0,.13-.03.25-.18.32-.08.14-.15.23-.29.34l-.12.12-.05-.03c0,.28-.52.22-.65.46h-.12s-.07-.08-.09-.12c-.17,0,.04.1-.08.12l-.3-.03c.02-.07-.05-.09-.09-.12-.12.11-.38,0-.54-.08-.18-.12-.45-.1-.55-.32h-.12c.07-.03.02-.12.03-.17l-.16-.12.12-.21c-.07-.12-.28-.12-.21-.29l-.38-.03c0-.07,0-.16.03-.24l-.19-.15c-.03.21-.31.13-.41.09.12-.19-.13-.47.2-.51-.06-.1.1-.12.15-.18.07,0,.09.07.12.08v.18c.14.01.26-.07.38.07.17-.36-.03-.75.27-1.03.14-.07.05-.3.23-.39l-.03-.03.12-.14c.12-.05.38-.04.5-.22.14.05.26-.07.21-.16.04,0,.1-.02.15-.05,0-.02-.02-.03-.03-.05-.02-.26.15-.47.32-.63.11.05.19-.13.21.05-.06.13-.03.28-.02.41.2-.02.35.2.53.13.04.06.09.09.15.1l.07-2.11h-.01c-.05.18-.33.1-.45.12l-.12-.05.03-.04-.21-.08c.05-.02.05-.07.05-.12-.06-.15-.31-.03-.21-.24h.04c-.15-.21-.07-.43-.03-.66-.08-.06-.15-.12-.17-.19-.04-.19.06-.56.35-.6.08,0,.15,0,.21,0,.07-.1.16-.2.31-.24.02.02.05.05.09.03l.03-.12s.12.04.16,0l.19-6.03c0-.36.2-.66.57-.52.43.16,1.11.27,1.87.32-.05-.27.32-.32.11-.6-.1-.07-.16-.17-.13-.29.15-.11.2-.35.45-.31.14.15.09.29.06.47.14.1.38-.06.51.11,0,.2.02.43,0,.66.21,0,.42,0,.62,0,2.17-.04,4.25-1.24,5.59-2.94,1.55-2.06,2.02-4.02,1.51-4.01-.51,0-1.08.38-2.16.84-.52.22-1.08.42-1.68.59-.02.04-.06.08-.11.11-.09.02-.13,0-.17-.04-.98.26-2.06.43-3.24.45-1.81.04-3.41-.36-5.09-1.05-.59-.28-1.39-.48-1.97-.47-.36,0-.64.38-.63.95l-.13,4.09c.16.09.3.21.41.33-.12.19.27.27,0,.42.02.12-.03.28.06.38-.41.11-.15.66-.54.7l-.05,1.77s.04-.02.05-.04c.12.02.25.06.27.2.02.05-.07.09-.08.12-.1.03-.18,0-.24-.07l-.34,11.1c.05.09.09.18.1.25.45.02.24.53.47.7-.12.09-.08.3-.03.42-.11.28-.34.44-.6.55l-.1,3.37,2.91.73c1.36-1.89,2.91-3.69,4.37-3.72ZM293.47,23.43c.1-.05.29-.11.38.03-.15.28-.53.32-.79.49l-.04-.05c.1-.25.41-.18.44-.46ZM291.69,22.12c.03-.14.06-.54.28-.63.24.08.43-.08.63.02.09.1,0,.33.22.41-.17.23-.13.44-.37.6l-.13-.12c.07.12-.08.26-.24.25h-.12c-.02-.2-.16.08-.21-.08-.02-.14-.36-.36-.06-.45ZM291.73,3.74c.21-.16.36-.2.59-.13.27.31-.07.73-.45.76-.09-.02-.14-.12-.21-.17l.08-.45ZM289.96,4.85c.03-.12.08-.25.2-.33.28-.09.37.11.51.29.06.15-.1.37-.16.51-.1-.02-.14.21-.24.08-.05.09-.14.11-.21.06-.09-.17-.2-.45-.1-.59ZM288.74,6.54l.18.12-.08.14c-.1-.02-.12-.12-.13-.21l.03-.05ZM284.94,8.41v.09c-.03.09-.12-.01-.16-.03l.16-.06ZM283.68,11.98c.16.12.34.25.3.41.39.2-.17.32-.29.39-.46.19-.49-.23-.58-.53.05-.29.33-.27.57-.27ZM284.09,24.2c.14-.09.27-.2.45-.17.17.05.3.19.3.36-.04-.02-.05.04-.09.05.03.02.05.05.09.03.02.09-.12.18-.2.21-.12-.02-.14-.02-.24.06-.18-.07-.25-.2-.34-.34.07-.04.02-.14.03-.21ZM283.39,22.78l.18.12-.09.14c-.1-.02-.12-.12-.12-.21l.03-.05ZM281.93,18.91c-.02.11.04.23-.03.3-.07-.05-.21-.1-.21-.24.09-.02.17-.16.24-.06ZM281.92,21.74v-.12s.05-.02.07-.04c.05-.21-.18-.06-.25-.17-.04-.05.03-.19.12-.24.07.02.14.05.21.03.02.35.86.49.28.83-.16-.05-.42-.06-.42-.29ZM282.42,24.08c.19.08.38-.15.42.15,0,.17.02.38-.16.42-.18-.1-.25-.2-.29-.41l.03-.16ZM282.58,25.99c-.07-.12-.06-.24.08-.33.05,0,.1.02.12-.04.09.12.18.2.18.33-.03.09.09.05.09.12-.15.11-.35,0-.47-.08ZM283.55,25.04c-.26.15-.47-.06-.58-.25-.11-.15,0-.35.02-.45-.09-.29.32-.34.11-.63-.11-.07-.16-.17-.13-.29.15-.11.2-.35.45-.3.14.15.09.29.06.47.08.06.19.03.3.03l.06-.08c-.18-.06-.25-.22-.22-.41.09.1.44.1.25.32l.12.05c-.02.05-.05.09-.1.13.03.01.07.03.1.07,0,.45.09,1.07-.44,1.35ZM283.87,25.95c-.23-.2,0-.33-.01-.56.28.01.26-.65.62-.29.47.15-.18.39.01.63-.03.18-.24.16-.38.25-.07-.02-.16-.15-.24-.03Z" style="fill:#fff9c1;"/><path d="M283.22,42.15c-.29,0-.43.36-.43.94,0,1.43.12,2.91.36,4.34l1.84.12c-.6-1.7-.96-3.4-.96-4.54,0-.65-.29-.87-.8-.87Z" style="fill:#fff9c1;"/><path d="M282.91,20.88s.02,0,.04,0c.03,0,.09.02.12-.04l-.13-.08s-.02.08-.03.11Z" style="fill:#fff9c1;"/><path d="M291.17,24.21h.01s0,0,0,0h0Z" style="fill:#fff9c1;"/><path d="M297.99,33.53s0,0,0,0v.08s0-.06,0-.08c-.64-.44-.65.92-1.3.47-.07.04-.11.23-.27.19l-.08-.12c-.19.54-.61.04-.84.19-.04-.04-.12-.12-.19-.08-.15.04-.04.23-.08.34-.7.04-1.12-.66-1.69-1.06.06,1.24.1,2.61.1,4.11,0,.95,0,1.84-.03,2.68,0-.04.02-.08.04-.11.1-.07.24-.17.36-.09.24.02.36.38.14.5l-.05-.04c-.09.21-.16.02-.3.12-.11-.08-.18-.19-.19-.31-.07,3.3-.27,5.83-.6,7.74l4.96.33c.71-3.04,1.03-6.8,1.03-11.12,0-.61-.02-1.2-.04-1.79-.04.04-.1.07-.18.11-.12.03-.28-.09-.45-.05-.16-.24-.26-.56-.14-.75-.02-.28.3-.07.38-.24.12,0,.23.16.33.07-.03.06-.02.1.02.14-.04-.59-.1-1.16-.17-1.73-.4.07-.84-.15-.76.48ZM294.25,43.12l-.09-.09h.12c.02.05-.02.07-.03.09ZM295.14,39.44c-.15.24-.31-.07-.45-.12-.24-.17.14-.28,0-.45.19-.02.23-.14.36-.26.14.17.31.07.42.3-.14.17.02.66-.33.54ZM296.1,45.19l-.04.05.04-.09v.03ZM296.48,37.94c-.07.07-.19.02-.3.04-.12-.16-.28-.4-.09-.63v-.12c.23-.04.52.03.62.29,0,.21-.12.3-.24.42ZM297.61,42.78v-.09l.09.09h-.09Z" style="fill:#fff9c1;"/><path d="M293.87,29.98s-.03.04,0,.12c-.21-.06-.18.15-.27.23.15-.06.31-.11.46-.21-.05-.06-.11-.1-.18-.14Z" style="fill:#fff9c1;"/></svg>
